<?xml version="1.0" encoding="us-ascii" standalone="no"?><svg xmlns="http://www.w3.org/2000/svg" xmlns:xlink="http://www.w3.org/1999/xlink" contentStyleType="text/css" height="628px" preserveAspectRatio="none" style="width:2431px;height:628px;background:#FFFFFF;" version="1.1" viewBox="0 0 2431 628" width="2431px" zoomAndPan="magnify"><defs/><g><!--class LocationService--><g id="elem_LocationService"><rect codeLine="2" fill="#F1F1F1" height="364.9688" id="LocationService" rx="2.5" ry="2.5" style="stroke:#181818;stroke-width:0.5;" width="387" x="921" y="7"/><ellipse cx="1059.75" cy="23" fill="#ADD1B2" rx="11" ry="11" style="stroke:#181818;stroke-width:1.0;"/><path d="M1062.5156,18.875 Q1062.6719,18.6563 1062.8594,18.5469 Q1063.0469,18.4375 1063.2656,18.4375 Q1063.6406,18.4375 1063.875,18.7031 Q1064.1094,18.9531 1064.1094,19.5625 L1064.1094,21.0156 Q1064.1094,21.625 1063.875,21.8906 Q1063.6406,22.1563 1063.2656,22.1563 Q1062.9219,22.1563 1062.7188,21.9531 Q1062.5156,21.7656 1062.4063,21.25 Q1062.3594,20.8906 1062.1719,20.7031 Q1061.8438,20.3281 1061.2344,20.1094 Q1060.625,19.8906 1060,19.8906 Q1059.2344,19.8906 1058.5938,20.2188 Q1057.9688,20.5469 1057.4688,21.2969 Q1056.9844,22.0469 1056.9844,23.0781 L1056.9844,24.1719 Q1056.9844,25.4063 1057.875,26.2344 Q1058.7656,27.0469 1060.3594,27.0469 Q1061.2969,27.0469 1061.9531,26.7969 Q1062.3438,26.6406 1062.7656,26.2031 Q1063.0313,25.9375 1063.1719,25.8594 Q1063.3281,25.7813 1063.5313,25.7813 Q1063.8594,25.7813 1064.1094,26.0469 Q1064.375,26.2969 1064.375,26.6406 Q1064.375,26.9844 1064.0313,27.3906 Q1063.5313,27.9688 1062.7344,28.2969 Q1061.6563,28.75 1060.3594,28.75 Q1058.8438,28.75 1057.6406,28.125 Q1056.6563,27.625 1055.9688,26.5625 Q1055.2813,25.4844 1055.2813,24.2031 L1055.2813,23.0469 Q1055.2813,21.7188 1055.8906,20.5781 Q1056.5156,19.4219 1057.6094,18.8125 Q1058.7031,18.1875 1059.9375,18.1875 Q1060.6719,18.1875 1061.3125,18.3594 Q1061.9688,18.5156 1062.5156,18.875 Z " fill="#000000"/><text fill="#000000" font-family="sans-serif" font-size="14" lengthAdjust="spacing" textLength="101" x="1080.25" y="28.7285">LocationService</text><line style="stroke:#181818;stroke-width:0.5;" x1="922" x2="1307" y1="39" y2="39"/><rect fill="none" height="6" style="stroke:#C82930;stroke-width:1.0;" width="6" x="929" y="50.3047"/><text fill="#000000" font-family="sans-serif" font-size="14" lengthAdjust="spacing" textLength="106" x="941" y="57.5332">bool _isInitialized</text><rect fill="none" height="6" style="stroke:#C82930;stroke-width:1.0;" width="6" x="929" y="67.9141"/><text fill="#000000" font-family="sans-serif" font-size="14" lengthAdjust="spacing" textLength="165" x="941" y="75.1426">Position? _currentPosition</text><rect fill="none" height="6" style="stroke:#C82930;stroke-width:1.0;" width="6" x="929" y="85.5234"/><text fill="#000000" font-family="sans-serif" font-size="14" lengthAdjust="spacing" textLength="271" x="941" y="92.752">List&lt;Map&lt;String, dynamic&gt;&gt; _observations</text><rect fill="none" height="6" style="stroke:#C82930;stroke-width:1.0;" width="6" x="929" y="103.1328"/><text fill="#000000" font-family="sans-serif" font-size="14" lengthAdjust="spacing" textLength="361" x="941" y="110.3613">Map&lt;String, Map&lt;String, dynamic&gt;&gt; _activeObservations</text><rect fill="none" height="6" style="stroke:#C82930;stroke-width:1.0;" width="6" x="929" y="120.7422"/><text fill="#000000" font-family="sans-serif" font-size="14" lengthAdjust="spacing" textLength="210" x="941" y="127.9707">bool _isLocationTrackingEnabled</text><rect fill="none" height="6" style="stroke:#C82930;stroke-width:1.0;" width="6" x="929" y="138.3516"/><text fill="#000000" font-family="sans-serif" font-size="14" lengthAdjust="spacing" textLength="137" x="941" y="145.5801">bool _isAudioEnabled</text><rect fill="none" height="6" style="stroke:#C82930;stroke-width:1.0;" width="6" x="929" y="155.9609"/><text fill="#000000" font-family="sans-serif" font-size="14" lengthAdjust="spacing" textLength="122" x="941" y="163.1895">double _maxRange</text><rect fill="none" height="6" style="stroke:#C82930;stroke-width:1.0;" width="6" x="929" y="173.5703"/><text fill="#000000" font-family="sans-serif" font-size="14" lengthAdjust="spacing" textLength="140" x="941" y="180.7988">double _distanceFilter</text><rect fill="none" height="6" style="stroke:#C82930;stroke-width:1.0;" width="6" x="929" y="191.1797"/><text fill="#000000" font-family="sans-serif" font-size="14" lengthAdjust="spacing" textLength="114" x="941" y="198.4082">bool _debugMode</text><line style="stroke:#181818;stroke-width:0.5;" x1="922" x2="1307" y1="205.4844" y2="205.4844"/><ellipse cx="932" cy="219.7891" fill="#84BE84" rx="3" ry="3" style="stroke:#038048;stroke-width:1.0;"/><text fill="#000000" font-family="sans-serif" font-size="14" lengthAdjust="spacing" textLength="132" x="941" y="224.0176">bool get isInitialized()</text><ellipse cx="932" cy="237.3984" fill="#84BE84" rx="3" ry="3" style="stroke:#038048;stroke-width:1.0;"/><text fill="#000000" font-family="sans-serif" font-size="14" lengthAdjust="spacing" textLength="191" x="941" y="241.627">Position? get currentPosition()</text><ellipse cx="932" cy="255.0078" fill="#84BE84" rx="3" ry="3" style="stroke:#038048;stroke-width:1.0;"/><text fill="#000000" font-family="sans-serif" font-size="14" lengthAdjust="spacing" textLength="236" x="941" y="259.2363">bool get isLocationTrackingEnabled()</text><ellipse cx="932" cy="272.6172" fill="#84BE84" rx="3" ry="3" style="stroke:#038048;stroke-width:1.0;"/><text fill="#000000" font-family="sans-serif" font-size="14" lengthAdjust="spacing" textLength="163" x="941" y="276.8457">bool get isAudioEnabled()</text><ellipse cx="932" cy="290.2266" fill="#84BE84" rx="3" ry="3" style="stroke:#038048;stroke-width:1.0;"/><text fill="#000000" font-family="sans-serif" font-size="14" lengthAdjust="spacing" textLength="337" x="941" y="294.4551">List&lt;Map&lt;String, dynamic&gt;&gt; get activeObservations()</text><ellipse cx="932" cy="307.8359" fill="#84BE84" rx="3" ry="3" style="stroke:#038048;stroke-width:1.0;"/><text fill="#000000" font-family="sans-serif" font-size="14" lengthAdjust="spacing" textLength="275" x="941" y="312.0645">Future&lt;void&gt; initialize(BuildContext context)</text><ellipse cx="932" cy="325.4453" fill="#84BE84" rx="3" ry="3" style="stroke:#038048;stroke-width:1.0;"/><text fill="#000000" font-family="sans-serif" font-size="14" lengthAdjust="spacing" textLength="270" x="941" y="329.6738">void toggleLocationTracking(bool enabled)</text><ellipse cx="932" cy="343.0547" fill="#84BE84" rx="3" ry="3" style="stroke:#038048;stroke-width:1.0;"/><text fill="#000000" font-family="sans-serif" font-size="14" lengthAdjust="spacing" textLength="197" x="941" y="347.2832">void toggleAudio(bool enabled)</text><ellipse cx="932" cy="360.6641" fill="#84BE84" rx="3" ry="3" style="stroke:#038048;stroke-width:1.0;"/><text fill="#000000" font-family="sans-serif" font-size="14" lengthAdjust="spacing" textLength="89" x="941" y="364.8926">void dispose()</text></g><!--class BirdSoundPlayer--><g id="elem_BirdSoundPlayer"><rect codeLine="23" fill="#F1F1F1" height="153.6563" id="BirdSoundPlayer" rx="2.5" ry="2.5" style="stroke:#181818;stroke-width:0.5;" width="539" x="7" y="458.5"/><ellipse cx="219.25" cy="474.5" fill="#ADD1B2" rx="11" ry="11" style="stroke:#181818;stroke-width:1.0;"/><path d="M222.0156,470.375 Q222.1719,470.1563 222.3594,470.0469 Q222.5469,469.9375 222.7656,469.9375 Q223.1406,469.9375 223.375,470.2031 Q223.6094,470.4531 223.6094,471.0625 L223.6094,472.5156 Q223.6094,473.125 223.375,473.3906 Q223.1406,473.6563 222.7656,473.6563 Q222.4219,473.6563 222.2188,473.4531 Q222.0156,473.2656 221.9063,472.75 Q221.8594,472.3906 221.6719,472.2031 Q221.3438,471.8281 220.7344,471.6094 Q220.125,471.3906 219.5,471.3906 Q218.7344,471.3906 218.0938,471.7188 Q217.4688,472.0469 216.9688,472.7969 Q216.4844,473.5469 216.4844,474.5781 L216.4844,475.6719 Q216.4844,476.9063 217.375,477.7344 Q218.2656,478.5469 219.8594,478.5469 Q220.7969,478.5469 221.4531,478.2969 Q221.8438,478.1406 222.2656,477.7031 Q222.5313,477.4375 222.6719,477.3594 Q222.8281,477.2813 223.0313,477.2813 Q223.3594,477.2813 223.6094,477.5469 Q223.875,477.7969 223.875,478.1406 Q223.875,478.4844 223.5313,478.8906 Q223.0313,479.4688 222.2344,479.7969 Q221.1563,480.25 219.8594,480.25 Q218.3438,480.25 217.1406,479.625 Q216.1563,479.125 215.4688,478.0625 Q214.7813,476.9844 214.7813,475.7031 L214.7813,474.5469 Q214.7813,473.2188 215.3906,472.0781 Q216.0156,470.9219 217.1094,470.3125 Q218.2031,469.6875 219.4375,469.6875 Q220.1719,469.6875 220.8125,469.8594 Q221.4688,470.0156 222.0156,470.375 Z " fill="#000000"/><text fill="#000000" font-family="sans-serif" font-size="14" lengthAdjust="spacing" textLength="106" x="239.75" y="480.2285">BirdSoundPlayer</text><line style="stroke:#181818;stroke-width:0.5;" x1="8" x2="545" y1="490.5" y2="490.5"/><rect fill="none" height="6" style="stroke:#C82930;stroke-width:1.0;" width="6" x="15" y="501.8047"/><text fill="#000000" font-family="sans-serif" font-size="14" lengthAdjust="spacing" textLength="236" x="27" y="509.0332">Map&lt;String, dynamic&gt; _activePlayers</text><rect fill="none" height="6" style="stroke:#C82930;stroke-width:1.0;" width="6" x="15" y="519.4141"/><text fill="#000000" font-family="sans-serif" font-size="14" lengthAdjust="spacing" textLength="88" x="27" y="526.6426">bool _isMuted</text><line style="stroke:#181818;stroke-width:0.5;" x1="8" x2="545" y1="533.7188" y2="533.7188"/><ellipse cx="18" cy="548.0234" fill="#84BE84" rx="3" ry="3" style="stroke:#038048;stroke-width:1.0;"/><text fill="#000000" font-family="sans-serif" font-size="14" lengthAdjust="spacing" textLength="412" x="27" y="552.252">void playSound(String observationId, double pan, double volume)</text><ellipse cx="18" cy="565.6328" fill="#84BE84" rx="3" ry="3" style="stroke:#038048;stroke-width:1.0;"/><text fill="#000000" font-family="sans-serif" font-size="14" lengthAdjust="spacing" textLength="241" x="27" y="569.8613">void stopSounds(String observationId)</text><ellipse cx="18" cy="583.2422" fill="#84BE84" rx="3" ry="3" style="stroke:#038048;stroke-width:1.0;"/><text fill="#000000" font-family="sans-serif" font-size="14" lengthAdjust="spacing" textLength="513" x="27" y="587.4707">void updatePanningAndVolume(String observationId, double pan, double volume)</text><ellipse cx="18" cy="600.8516" fill="#84BE84" rx="3" ry="3" style="stroke:#038048;stroke-width:1.0;"/><text fill="#000000" font-family="sans-serif" font-size="14" lengthAdjust="spacing" textLength="89" x="27" y="605.0801">void dispose()</text></g><!--class AzureStorageService--><g id="elem_AzureStorageService"><rect codeLine="32" fill="#F1F1F1" height="136.0469" id="AzureStorageService" rx="2.5" ry="2.5" style="stroke:#181818;stroke-width:0.5;" width="398" x="581.5" y="467.5"/><ellipse cx="709.75" cy="483.5" fill="#ADD1B2" rx="11" ry="11" style="stroke:#181818;stroke-width:1.0;"/><path d="M712.5156,479.375 Q712.6719,479.1563 712.8594,479.0469 Q713.0469,478.9375 713.2656,478.9375 Q713.6406,478.9375 713.875,479.2031 Q714.1094,479.4531 714.1094,480.0625 L714.1094,481.5156 Q714.1094,482.125 713.875,482.3906 Q713.6406,482.6563 713.2656,482.6563 Q712.9219,482.6563 712.7188,482.4531 Q712.5156,482.2656 712.4063,481.75 Q712.3594,481.3906 712.1719,481.2031 Q711.8438,480.8281 711.2344,480.6094 Q710.625,480.3906 710,480.3906 Q709.2344,480.3906 708.5938,480.7188 Q707.9688,481.0469 707.4688,481.7969 Q706.9844,482.5469 706.9844,483.5781 L706.9844,484.6719 Q706.9844,485.9063 707.875,486.7344 Q708.7656,487.5469 710.3594,487.5469 Q711.2969,487.5469 711.9531,487.2969 Q712.3438,487.1406 712.7656,486.7031 Q713.0313,486.4375 713.1719,486.3594 Q713.3281,486.2813 713.5313,486.2813 Q713.8594,486.2813 714.1094,486.5469 Q714.375,486.7969 714.375,487.1406 Q714.375,487.4844 714.0313,487.8906 Q713.5313,488.4688 712.7344,488.7969 Q711.6563,489.25 710.3594,489.25 Q708.8438,489.25 707.6406,488.625 Q706.6563,488.125 705.9688,487.0625 Q705.2813,485.9844 705.2813,484.7031 L705.2813,483.5469 Q705.2813,482.2188 705.8906,481.0781 Q706.5156,479.9219 707.6094,479.3125 Q708.7031,478.6875 709.9375,478.6875 Q710.6719,478.6875 711.3125,478.8594 Q711.9688,479.0156 712.5156,479.375 Z " fill="#000000"/><text fill="#000000" font-family="sans-serif" font-size="14" lengthAdjust="spacing" textLength="133" x="730.25" y="489.2285">AzureStorageService</text><line style="stroke:#181818;stroke-width:0.5;" x1="582.5" x2="978.5" y1="499.5" y2="499.5"/><rect fill="none" height="6" style="stroke:#C82930;stroke-width:1.0;" width="6" x="589.5" y="510.8047"/><text fill="#000000" font-family="sans-serif" font-size="14" lengthAdjust="spacing" textLength="192" x="601.5" y="518.0332">String? _storageAccountName</text><rect fill="none" height="6" style="stroke:#C82930;stroke-width:1.0;" width="6" x="589.5" y="528.4141"/><text fill="#000000" font-family="sans-serif" font-size="14" lengthAdjust="spacing" textLength="180" x="601.5" y="535.6426">String? _storageAccountKey</text><line style="stroke:#181818;stroke-width:0.5;" x1="582.5" x2="978.5" y1="542.7188" y2="542.7188"/><ellipse cx="592.5" cy="557.0234" fill="#84BE84" rx="3" ry="3" style="stroke:#038048;stroke-width:1.0;"/><text fill="#000000" font-family="sans-serif" font-size="14" lengthAdjust="spacing" textLength="147" x="601.5" y="561.252">Future&lt;void&gt; initialize()</text><ellipse cx="592.5" cy="574.6328" fill="#84BE84" rx="3" ry="3" style="stroke:#038048;stroke-width:1.0;"/><text fill="#000000" font-family="sans-serif" font-size="14" lengthAdjust="spacing" textLength="294" x="601.5" y="578.8613">Future&lt;List&lt;String&gt;&gt; listFiles(String container)</text><ellipse cx="592.5" cy="592.2422" fill="#84BE84" rx="3" ry="3" style="stroke:#038048;stroke-width:1.0;"/><text fill="#000000" font-family="sans-serif" font-size="14" lengthAdjust="spacing" textLength="372" x="601.5" y="596.4707">Future&lt;String&gt; getFileUrl(String container, String fileName)</text></g><!--class BackgroundAudioService--><g id="elem_BackgroundAudioService"><rect codeLine="40" fill="#F1F1F1" height="118.4375" id="BackgroundAudioService" rx="2.5" ry="2.5" style="stroke:#181818;stroke-width:0.5;" width="199" x="1015" y="476.5"/><ellipse cx="1033.6" cy="492.5" fill="#ADD1B2" rx="11" ry="11" style="stroke:#181818;stroke-width:1.0;"/><path d="M1036.3656,488.375 Q1036.5219,488.1563 1036.7094,488.0469 Q1036.8969,487.9375 1037.1156,487.9375 Q1037.4906,487.9375 1037.725,488.2031 Q1037.9594,488.4531 1037.9594,489.0625 L1037.9594,490.5156 Q1037.9594,491.125 1037.725,491.3906 Q1037.4906,491.6563 1037.1156,491.6563 Q1036.7719,491.6563 1036.5688,491.4531 Q1036.3656,491.2656 1036.2563,490.75 Q1036.2094,490.3906 1036.0219,490.2031 Q1035.6938,489.8281 1035.0844,489.6094 Q1034.475,489.3906 1033.85,489.3906 Q1033.0844,489.3906 1032.4438,489.7188 Q1031.8188,490.0469 1031.3188,490.7969 Q1030.8344,491.5469 1030.8344,492.5781 L1030.8344,493.6719 Q1030.8344,494.9063 1031.725,495.7344 Q1032.6156,496.5469 1034.2094,496.5469 Q1035.1469,496.5469 1035.8031,496.2969 Q1036.1938,496.1406 1036.6156,495.7031 Q1036.8813,495.4375 1037.0219,495.3594 Q1037.1781,495.2813 1037.3813,495.2813 Q1037.7094,495.2813 1037.9594,495.5469 Q1038.225,495.7969 1038.225,496.1406 Q1038.225,496.4844 1037.8813,496.8906 Q1037.3813,497.4688 1036.5844,497.7969 Q1035.5063,498.25 1034.2094,498.25 Q1032.6938,498.25 1031.4906,497.625 Q1030.5063,497.125 1029.8188,496.0625 Q1029.1313,494.9844 1029.1313,493.7031 L1029.1313,492.5469 Q1029.1313,491.2188 1029.7406,490.0781 Q1030.3656,488.9219 1031.4594,488.3125 Q1032.5531,487.6875 1033.7875,487.6875 Q1034.5219,487.6875 1035.1625,487.8594 Q1035.8188,488.0156 1036.3656,488.375 Z " fill="#000000"/><text fill="#000000" font-family="sans-serif" font-size="14" lengthAdjust="spacing" textLength="159" x="1048.4" y="498.2285">BackgroundAudioService</text><line style="stroke:#181818;stroke-width:0.5;" x1="1016" x2="1213" y1="508.5" y2="508.5"/><rect fill="none" height="6" style="stroke:#C82930;stroke-width:1.0;" width="6" x="1023" y="519.8047"/><text fill="#000000" font-family="sans-serif" font-size="14" lengthAdjust="spacing" textLength="102" x="1035" y="527.0332">bool _isRunning</text><line style="stroke:#181818;stroke-width:0.5;" x1="1016" x2="1213" y1="534.1094" y2="534.1094"/><ellipse cx="1026" cy="548.4141" fill="#84BE84" rx="3" ry="3" style="stroke:#038048;stroke-width:1.0;"/><text fill="#000000" font-family="sans-serif" font-size="14" lengthAdjust="spacing" textLength="173" x="1035" y="552.6426">Future&lt;void&gt; startService()</text><ellipse cx="1026" cy="566.0234" fill="#84BE84" rx="3" ry="3" style="stroke:#038048;stroke-width:1.0;"/><text fill="#000000" font-family="sans-serif" font-size="14" lengthAdjust="spacing" textLength="172" x="1035" y="570.252">Future&lt;void&gt; stopService()</text><ellipse cx="1026" cy="583.6328" fill="#84BE84" rx="3" ry="3" style="stroke:#038048;stroke-width:1.0;"/><text fill="#000000" font-family="sans-serif" font-size="14" lengthAdjust="spacing" textLength="128" x="1035" y="587.8613">bool get isRunning()</text></g><!--class LocationRepositoryInterface--><g id="elem_LocationRepositoryInterface"><rect codeLine="47" fill="#F1F1F1" height="118.4375" id="LocationRepositoryInterface" rx="2.5" ry="2.5" style="stroke:#181818;stroke-width:0.5;" width="542" x="1249.5" y="476.5"/><ellipse cx="1427.75" cy="492.5" fill="#ADD1B2" rx="11" ry="11" style="stroke:#181818;stroke-width:1.0;"/><path d="M1430.5156,488.375 Q1430.6719,488.1563 1430.8594,488.0469 Q1431.0469,487.9375 1431.2656,487.9375 Q1431.6406,487.9375 1431.875,488.2031 Q1432.1094,488.4531 1432.1094,489.0625 L1432.1094,490.5156 Q1432.1094,491.125 1431.875,491.3906 Q1431.6406,491.6563 1431.2656,491.6563 Q1430.9219,491.6563 1430.7188,491.4531 Q1430.5156,491.2656 1430.4063,490.75 Q1430.3594,490.3906 1430.1719,490.2031 Q1429.8438,489.8281 1429.2344,489.6094 Q1428.625,489.3906 1428,489.3906 Q1427.2344,489.3906 1426.5938,489.7188 Q1425.9688,490.0469 1425.4688,490.7969 Q1424.9844,491.5469 1424.9844,492.5781 L1424.9844,493.6719 Q1424.9844,494.9063 1425.875,495.7344 Q1426.7656,496.5469 1428.3594,496.5469 Q1429.2969,496.5469 1429.9531,496.2969 Q1430.3438,496.1406 1430.7656,495.7031 Q1431.0313,495.4375 1431.1719,495.3594 Q1431.3281,495.2813 1431.5313,495.2813 Q1431.8594,495.2813 1432.1094,495.5469 Q1432.375,495.7969 1432.375,496.1406 Q1432.375,496.4844 1432.0313,496.8906 Q1431.5313,497.4688 1430.7344,497.7969 Q1429.6563,498.25 1428.3594,498.25 Q1426.8438,498.25 1425.6406,497.625 Q1424.6563,497.125 1423.9688,496.0625 Q1423.2813,494.9844 1423.2813,493.7031 L1423.2813,492.5469 Q1423.2813,491.2188 1423.8906,490.0781 Q1424.5156,488.9219 1425.6094,488.3125 Q1426.7031,487.6875 1427.9375,487.6875 Q1428.6719,487.6875 1429.3125,487.8594 Q1429.9688,488.0156 1430.5156,488.375 Z " fill="#000000"/><text fill="#000000" font-family="sans-serif" font-size="14" lengthAdjust="spacing" textLength="177" x="1448.25" y="498.2285">LocationRepositoryInterface</text><line style="stroke:#181818;stroke-width:0.5;" x1="1250.5" x2="1790.5" y1="508.5" y2="508.5"/><line style="stroke:#181818;stroke-width:0.5;" x1="1250.5" x2="1790.5" y1="516.5" y2="516.5"/><ellipse cx="1260.5" cy="530.8047" fill="#84BE84" rx="3" ry="3" style="stroke:#038048;stroke-width:1.0;"/><text fill="#000000" font-family="sans-serif" font-size="14" lengthAdjust="spacing" textLength="270" x="1269.5" y="535.0332">Future&lt;bool&gt; requestLocationPermission()</text><ellipse cx="1260.5" cy="548.4141" fill="#84BE84" rx="3" ry="3" style="stroke:#038048;stroke-width:1.0;"/><text fill="#000000" font-family="sans-serif" font-size="14" lengthAdjust="spacing" textLength="248" x="1269.5" y="552.6426">Future&lt;Position?&gt; getCurrentPosition()</text><ellipse cx="1260.5" cy="566.0234" fill="#84BE84" rx="3" ry="3" style="stroke:#038048;stroke-width:1.0;"/><text fill="#000000" font-family="sans-serif" font-size="14" lengthAdjust="spacing" textLength="269" x="1269.5" y="570.252">Future&lt;Position?&gt; getLastKnownPosition()</text><ellipse cx="1260.5" cy="583.6328" fill="#84BE84" rx="3" ry="3" style="stroke:#038048;stroke-width:1.0;"/><text fill="#000000" font-family="sans-serif" font-size="14" lengthAdjust="spacing" textLength="516" x="1269.5" y="587.8613">Stream&lt;Position&gt; getPositionStream({required LocationSettings locationSettings})</text></g><!--class LocationManager--><g id="elem_LocationManager"><rect codeLine="54" fill="#F1F1F1" height="171.2656" id="LocationManager" rx="2.5" ry="2.5" style="stroke:#181818;stroke-width:0.5;" width="598" x="1826.5" y="450"/><ellipse cx="2066.25" cy="466" fill="#ADD1B2" rx="11" ry="11" style="stroke:#181818;stroke-width:1.0;"/><path d="M2069.0156,461.875 Q2069.1719,461.6563 2069.3594,461.5469 Q2069.5469,461.4375 2069.7656,461.4375 Q2070.1406,461.4375 2070.375,461.7031 Q2070.6094,461.9531 2070.6094,462.5625 L2070.6094,464.0156 Q2070.6094,464.625 2070.375,464.8906 Q2070.1406,465.1563 2069.7656,465.1563 Q2069.4219,465.1563 2069.2188,464.9531 Q2069.0156,464.7656 2068.9063,464.25 Q2068.8594,463.8906 2068.6719,463.7031 Q2068.3438,463.3281 2067.7344,463.1094 Q2067.125,462.8906 2066.5,462.8906 Q2065.7344,462.8906 2065.0938,463.2188 Q2064.4688,463.5469 2063.9688,464.2969 Q2063.4844,465.0469 2063.4844,466.0781 L2063.4844,467.1719 Q2063.4844,468.4063 2064.375,469.2344 Q2065.2656,470.0469 2066.8594,470.0469 Q2067.7969,470.0469 2068.4531,469.7969 Q2068.8438,469.6406 2069.2656,469.2031 Q2069.5313,468.9375 2069.6719,468.8594 Q2069.8281,468.7813 2070.0313,468.7813 Q2070.3594,468.7813 2070.6094,469.0469 Q2070.875,469.2969 2070.875,469.6406 Q2070.875,469.9844 2070.5313,470.3906 Q2070.0313,470.9688 2069.2344,471.2969 Q2068.1563,471.75 2066.8594,471.75 Q2065.3438,471.75 2064.1406,471.125 Q2063.1563,470.625 2062.4688,469.5625 Q2061.7813,468.4844 2061.7813,467.2031 L2061.7813,466.0469 Q2061.7813,464.7188 2062.3906,463.5781 Q2063.0156,462.4219 2064.1094,461.8125 Q2065.2031,461.1875 2066.4375,461.1875 Q2067.1719,461.1875 2067.8125,461.3594 Q2068.4688,461.5156 2069.0156,461.875 Z " fill="#000000"/><text fill="#000000" font-family="sans-serif" font-size="14" lengthAdjust="spacing" textLength="110" x="2086.75" y="471.7285">LocationManager</text><line style="stroke:#181818;stroke-width:0.5;" x1="1827.5" x2="2423.5" y1="482" y2="482"/><rect fill="none" height="6" style="stroke:#C82930;stroke-width:1.0;" width="6" x="1834.5" y="493.3047"/><text fill="#000000" font-family="sans-serif" font-size="14" lengthAdjust="spacing" textLength="381" x="1846.5" y="500.5332">StreamSubscription&lt;Position&gt;? _positionStreamSubscription</text><line style="stroke:#181818;stroke-width:0.5;" x1="1827.5" x2="2423.5" y1="507.6094" y2="507.6094"/><ellipse cx="1837.5" cy="521.9141" fill="#84BE84" rx="3" ry="3" style="stroke:#038048;stroke-width:1.0;"/><text fill="#000000" font-family="sans-serif" font-size="14" lengthAdjust="spacing" textLength="148" x="1846.5" y="526.1426">Future&lt;bool&gt; initialize()</text><ellipse cx="1837.5" cy="539.5234" fill="#84BE84" rx="3" ry="3" style="stroke:#038048;stroke-width:1.0;"/><text fill="#000000" font-family="sans-serif" font-size="14" lengthAdjust="spacing" textLength="360" x="1846.5" y="543.752">Future&lt;void&gt; setLocationTrackingEnabled(bool enabled)</text><ellipse cx="1837.5" cy="557.1328" fill="#84BE84" rx="3" ry="3" style="stroke:#038048;stroke-width:1.0;"/><text fill="#000000" font-family="sans-serif" font-size="14" lengthAdjust="spacing" textLength="480" x="1846.5" y="561.3613">double calculateDistance(double lat1, double lon1, double lat2, double lon2)</text><ellipse cx="1837.5" cy="574.7422" fill="#84BE84" rx="3" ry="3" style="stroke:#038048;stroke-width:1.0;"/><text fill="#000000" font-family="sans-serif" font-size="14" lengthAdjust="spacing" textLength="572" x="1846.5" y="578.9707">double calculatePan(double userLat, double userLng, double soundLat, double soundLng)</text><ellipse cx="1837.5" cy="592.3516" fill="#84BE84" rx="3" ry="3" style="stroke:#038048;stroke-width:1.0;"/><text fill="#000000" font-family="sans-serif" font-size="14" lengthAdjust="spacing" textLength="89" x="1846.5" y="596.5801">void dispose()</text><ellipse cx="1837.5" cy="609.9609" fill="#84BE84" rx="3" ry="3" style="stroke:#038048;stroke-width:1.0;"/><text fill="#000000" font-family="sans-serif" font-size="14" lengthAdjust="spacing" textLength="321" x="1846.5" y="614.1895">void Function(Position position)? onPositionUpdate</text></g><!--link LocationService to BirdSoundPlayer--><g id="link_LocationService_BirdSoundPlayer"><path codeLine="64" d="M920.93,269.96 C782.8,326.66 603.6705,400.1914 467.4305,456.1214 " fill="none" id="LocationService-to-BirdSoundPlayer" style="stroke:#181818;stroke-width:1.0;"/><polygon fill="#181818" points="461.88,458.4,471.7248,458.6824,466.5054,456.5012,468.6867,451.2818,461.88,458.4" style="stroke:#181818;stroke-width:1.0;"/><text fill="#000000" font-family="sans-serif" font-size="13" lengthAdjust="spacing" textLength="28" x="597.5" y="416.4951">uses</text></g><!--link LocationService to AzureStorageService--><g id="link_LocationService_AzureStorageService"><path codeLine="65" d="M938.21,372.07 C905.12,406.15 876.7,435.4257 849.8,463.1257 " fill="none" id="LocationService-to-AzureStorageService" style="stroke:#181818;stroke-width:1.0;"/><polygon fill="#181818" points="845.62,467.43,854.7596,463.7602,849.1034,463.843,849.0205,458.1868,845.62,467.43" style="stroke:#181818;stroke-width:1.0;"/><text fill="#000000" font-family="sans-serif" font-size="13" lengthAdjust="spacing" textLength="28" x="909.5" y="416.4951">uses</text></g><!--link LocationService to BackgroundAudioService--><g id="link_LocationService_BackgroundAudioService"><path codeLine="66" d="M1114.5,372.07 C1114.5,409.86 1114.5,441.04 1114.5,470.27 " fill="none" id="LocationService-to-BackgroundAudioService" style="stroke:#181818;stroke-width:1.0;"/><polygon fill="#181818" points="1114.5,476.27,1118.5,467.27,1114.5,471.27,1110.5,467.27,1114.5,476.27" style="stroke:#181818;stroke-width:1.0;"/><text fill="#000000" font-family="sans-serif" font-size="13" lengthAdjust="spacing" textLength="28" x="1115.5" y="416.4951">uses</text></g><!--link LocationService to LocationRepositoryInterface--><g id="link_LocationService_LocationRepositoryInterface"><path codeLine="67" d="M1308.28,354.69 C1359.71,398.26 1407.3424,438.6211 1447.1124,472.3211 " fill="none" id="LocationService-to-LocationRepositoryInterface" style="stroke:#181818;stroke-width:1.0;"/><polygon fill="#181818" points="1451.69,476.2,1447.4096,467.3299,1447.8754,472.9676,1442.2377,473.4334,1451.69,476.2" style="stroke:#181818;stroke-width:1.0;"/><text fill="#000000" font-family="sans-serif" font-size="13" lengthAdjust="spacing" textLength="28" x="1379.5" y="416.4951">uses</text></g><!--link LocationService to LocationManager--><g id="link_LocationService_LocationManager"><path codeLine="68" d="M1308.23,256.42 C1469.92,311.44 1695.7497,388.2775 1871.1097,447.9375 " fill="none" id="LocationService-to-LocationManager" style="stroke:#181818;stroke-width:1.0;"/><polygon fill="#181818" points="1876.79,449.87,1869.5579,443.1844,1872.0564,448.2596,1866.9813,450.7581,1876.79,449.87" style="stroke:#181818;stroke-width:1.0;"/><text fill="#000000" font-family="sans-serif" font-size="13" lengthAdjust="spacing" textLength="28" x="1771.5" y="416.4951">uses</text></g><!--SRC=[fLLDJnin4BtpAtmCAXpAiK910OeKaRGHARr6ZZsih3hsrXyf0V7VE_RQ6szs4rNgAV7Cc_5uvhrP9gcrPAOPTKAh9PYjO43UpmYv96kj9La9ErN22Ih56_1eNsWh0lg6h9Wt1fJBbkYU2UkkvxI-NZeZL7L1-4xHZM3ZCLdfjSKhubqsWalSaHZAdDZ2zyF8N5sk_OUXx1V6VbLqBLEb6JFnNEZImRN7_sIreQzFL5NGCN9y05KC7eHqO8f47DQ-cciUu9yQMmMET3eqEe_EVOy2ug1D2LCaEFA8Fh1yIVAUw7U8wRSlnJruvmrSRxNWOoBQ5unklP3yJYi7hrXvyzj412Xnkgea71OyYZL2KrWF7Qi-1i5srze2LlLnTiOY7s-5uKlj5Lz8kWEJ-3ZqnaoF1jXbnjoxEEvqJusGc7JK92456QVy8e-_fghzlzNIRw2erJfTnnnsC4c1z3Md3XPKAKHD5FyPK_t7rGDjchpX09TE6rf1LxhDDIXGstWdZ67LxXlTm2d_8-nEKgD3dCYx9X5IJU891GDjOm9pg51WEa497vWPqCz6zl0NgJhoWe1GSKaCP5jbmW0YfORtrPEFJU-_16LjN8eP4a6SRiTTA2zbBVkVHV04TL2sDhifgiMyq5HIcpwa6HC3lprObwCMO3R2slq-IE1sTSGktGskZa7eZ5htgFGVTG36TWBTjE28pOV6DteFjGa3lFWKE8VFjKGU63u66Z2d2abazkJ3d4k_jio8ElZtToFbwixL9QpVicFSI_C2TsnnzdTDqXMZadc9qhnFMtwK76ZxtAfFQbKSgBigFLV32L7hEPT7TS-eQuFYEQwjvcm3Wqj0Or3LeDvRquDNBCurjvFaNfxV4DsE_JckdZ2bm-_wvUMujrk_XEhi87Helvo07n7dYOXJ0lg7i4ox1FqB]--></g></svg>