<?xml version="1.0" encoding="us-ascii" standalone="no"?><svg xmlns="http://www.w3.org/2000/svg" xmlns:xlink="http://www.w3.org/1999/xlink" contentStyleType="text/css" height="680px" preserveAspectRatio="none" style="width:2906px;height:680px;background:#FFFFFF;" version="1.1" viewBox="0 0 2906 680" width="2906px" zoomAndPan="magnify"><defs/><g><!--class RecordingPlayerService--><g id="elem_RecordingPlayerService"><rect codeLine="2" fill="#F1F1F1" height="171.2656" id="RecordingPlayerService" rx="2.5" ry="2.5" style="stroke:#181818;stroke-width:0.5;" width="356" x="7" y="423.5"/><ellipse cx="104.75" cy="439.5" fill="#ADD1B2" rx="11" ry="11" style="stroke:#181818;stroke-width:1.0;"/><path d="M107.5156,435.375 Q107.6719,435.1563 107.8594,435.0469 Q108.0469,434.9375 108.2656,434.9375 Q108.6406,434.9375 108.875,435.2031 Q109.1094,435.4531 109.1094,436.0625 L109.1094,437.5156 Q109.1094,438.125 108.875,438.3906 Q108.6406,438.6563 108.2656,438.6563 Q107.9219,438.6563 107.7188,438.4531 Q107.5156,438.2656 107.4063,437.75 Q107.3594,437.3906 107.1719,437.2031 Q106.8438,436.8281 106.2344,436.6094 Q105.625,436.3906 105,436.3906 Q104.2344,436.3906 103.5938,436.7188 Q102.9688,437.0469 102.4688,437.7969 Q101.9844,438.5469 101.9844,439.5781 L101.9844,440.6719 Q101.9844,441.9063 102.875,442.7344 Q103.7656,443.5469 105.3594,443.5469 Q106.2969,443.5469 106.9531,443.2969 Q107.3438,443.1406 107.7656,442.7031 Q108.0313,442.4375 108.1719,442.3594 Q108.3281,442.2813 108.5313,442.2813 Q108.8594,442.2813 109.1094,442.5469 Q109.375,442.7969 109.375,443.1406 Q109.375,443.4844 109.0313,443.8906 Q108.5313,444.4688 107.7344,444.7969 Q106.6563,445.25 105.3594,445.25 Q103.8438,445.25 102.6406,444.625 Q101.6563,444.125 100.9688,443.0625 Q100.2813,441.9844 100.2813,440.7031 L100.2813,439.5469 Q100.2813,438.2188 100.8906,437.0781 Q101.5156,435.9219 102.6094,435.3125 Q103.7031,434.6875 104.9375,434.6875 Q105.6719,434.6875 106.3125,434.8594 Q106.9688,435.0156 107.5156,435.375 Z " fill="#000000"/><text fill="#000000" font-family="sans-serif" font-size="14" lengthAdjust="spacing" textLength="152" x="125.25" y="445.2285">RecordingPlayerService</text><line style="stroke:#181818;stroke-width:0.5;" x1="8" x2="362" y1="455.5" y2="455.5"/><rect fill="none" height="6" style="stroke:#C82930;stroke-width:1.0;" width="6" x="15" y="466.8047"/><text fill="#000000" font-family="sans-serif" font-size="14" lengthAdjust="spacing" textLength="95" x="27" y="474.0332">bool _isPlaying</text><rect fill="none" height="6" style="stroke:#C82930;stroke-width:1.0;" width="6" x="15" y="484.4141"/><text fill="#000000" font-family="sans-serif" font-size="14" lengthAdjust="spacing" textLength="138" x="27" y="491.6426">String? _currentAudio</text><line style="stroke:#181818;stroke-width:0.5;" x1="8" x2="362" y1="498.7188" y2="498.7188"/><ellipse cx="18" cy="513.0234" fill="#84BE84" rx="3" ry="3" style="stroke:#038048;stroke-width:1.0;"/><text fill="#000000" font-family="sans-serif" font-size="14" lengthAdjust="spacing" textLength="121" x="27" y="517.252">bool get isPlaying()</text><ellipse cx="18" cy="530.6328" fill="#84BE84" rx="3" ry="3" style="stroke:#038048;stroke-width:1.0;"/><text fill="#000000" font-family="sans-serif" font-size="14" lengthAdjust="spacing" textLength="307" x="27" y="534.8613">Future&lt;void&gt; playBirdQuestion(String birdName)</text><ellipse cx="18" cy="548.2422" fill="#84BE84" rx="3" ry="3" style="stroke:#038048;stroke-width:1.0;"/><text fill="#000000" font-family="sans-serif" font-size="14" lengthAdjust="spacing" textLength="330" x="27" y="552.4707">Future&lt;void&gt; playBirdConfirmation(String birdName)</text><ellipse cx="18" cy="565.8516" fill="#84BE84" rx="3" ry="3" style="stroke:#038048;stroke-width:1.0;"/><text fill="#000000" font-family="sans-serif" font-size="14" lengthAdjust="spacing" textLength="278" x="27" y="570.0801">Future&lt;void&gt; playPrompt(String promptKey)</text><ellipse cx="18" cy="583.4609" fill="#84BE84" rx="3" ry="3" style="stroke:#038048;stroke-width:1.0;"/><text fill="#000000" font-family="sans-serif" font-size="14" lengthAdjust="spacing" textLength="161" x="27" y="587.6895">Future&lt;void&gt; stopAudio()</text></g><!--class SpeechRecognitionService--><g id="elem_SpeechRecognitionService"><rect codeLine="12" fill="#F1F1F1" height="241.7031" id="SpeechRecognitionService" rx="2.5" ry="2.5" style="stroke:#181818;stroke-width:0.5;" width="210" x="398" y="388"/><ellipse cx="416.6" cy="404" fill="#ADD1B2" rx="11" ry="11" style="stroke:#181818;stroke-width:1.0;"/><path d="M419.3656,399.875 Q419.5219,399.6563 419.7094,399.5469 Q419.8969,399.4375 420.1156,399.4375 Q420.4906,399.4375 420.725,399.7031 Q420.9594,399.9531 420.9594,400.5625 L420.9594,402.0156 Q420.9594,402.625 420.725,402.8906 Q420.4906,403.1563 420.1156,403.1563 Q419.7719,403.1563 419.5688,402.9531 Q419.3656,402.7656 419.2563,402.25 Q419.2094,401.8906 419.0219,401.7031 Q418.6938,401.3281 418.0844,401.1094 Q417.475,400.8906 416.85,400.8906 Q416.0844,400.8906 415.4438,401.2188 Q414.8188,401.5469 414.3188,402.2969 Q413.8344,403.0469 413.8344,404.0781 L413.8344,405.1719 Q413.8344,406.4063 414.725,407.2344 Q415.6156,408.0469 417.2094,408.0469 Q418.1469,408.0469 418.8031,407.7969 Q419.1938,407.6406 419.6156,407.2031 Q419.8813,406.9375 420.0219,406.8594 Q420.1781,406.7813 420.3813,406.7813 Q420.7094,406.7813 420.9594,407.0469 Q421.225,407.2969 421.225,407.6406 Q421.225,407.9844 420.8813,408.3906 Q420.3813,408.9688 419.5844,409.2969 Q418.5063,409.75 417.2094,409.75 Q415.6938,409.75 414.4906,409.125 Q413.5063,408.625 412.8188,407.5625 Q412.1313,406.4844 412.1313,405.2031 L412.1313,404.0469 Q412.1313,402.7188 412.7406,401.5781 Q413.3656,400.4219 414.4594,399.8125 Q415.5531,399.1875 416.7875,399.1875 Q417.5219,399.1875 418.1625,399.3594 Q418.8188,399.5156 419.3656,399.875 Z " fill="#000000"/><text fill="#000000" font-family="sans-serif" font-size="14" lengthAdjust="spacing" textLength="170" x="431.4" y="409.7285">SpeechRecognitionService</text><line style="stroke:#181818;stroke-width:0.5;" x1="399" x2="607" y1="420" y2="420"/><rect fill="none" height="6" style="stroke:#C82930;stroke-width:1.0;" width="6" x="406" y="431.3047"/><text fill="#000000" font-family="sans-serif" font-size="14" lengthAdjust="spacing" textLength="106" x="418" y="438.5332">bool _isInitialized</text><rect fill="none" height="6" style="stroke:#C82930;stroke-width:1.0;" width="6" x="406" y="448.9141"/><text fill="#000000" font-family="sans-serif" font-size="14" lengthAdjust="spacing" textLength="106" x="418" y="456.1426">bool _isListening</text><rect fill="none" height="6" style="stroke:#C82930;stroke-width:1.0;" width="6" x="406" y="466.5234"/><text fill="#000000" font-family="sans-serif" font-size="14" lengthAdjust="spacing" textLength="145" x="418" y="473.752">String _recognizedText</text><rect fill="none" height="6" style="stroke:#C82930;stroke-width:1.0;" width="6" x="406" y="484.1328"/><text fill="#000000" font-family="sans-serif" font-size="14" lengthAdjust="spacing" textLength="124" x="418" y="491.3613">double _confidence</text><rect fill="none" height="6" style="stroke:#C82930;stroke-width:1.0;" width="6" x="406" y="501.7422"/><text fill="#000000" font-family="sans-serif" font-size="14" lengthAdjust="spacing" textLength="145" x="418" y="508.9707">String? _errorMessage</text><line style="stroke:#181818;stroke-width:0.5;" x1="399" x2="607" y1="516.0469" y2="516.0469"/><ellipse cx="409" cy="530.3516" fill="#84BE84" rx="3" ry="3" style="stroke:#038048;stroke-width:1.0;"/><text fill="#000000" font-family="sans-serif" font-size="14" lengthAdjust="spacing" textLength="132" x="418" y="534.5801">bool get isInitialized()</text><ellipse cx="409" cy="547.9609" fill="#84BE84" rx="3" ry="3" style="stroke:#038048;stroke-width:1.0;"/><text fill="#000000" font-family="sans-serif" font-size="14" lengthAdjust="spacing" textLength="132" x="418" y="552.1895">bool get isListening()</text><ellipse cx="409" cy="565.5703" fill="#84BE84" rx="3" ry="3" style="stroke:#038048;stroke-width:1.0;"/><text fill="#000000" font-family="sans-serif" font-size="14" lengthAdjust="spacing" textLength="171" x="418" y="569.7988">String get recognizedText()</text><ellipse cx="409" cy="583.1797" fill="#84BE84" rx="3" ry="3" style="stroke:#038048;stroke-width:1.0;"/><text fill="#000000" font-family="sans-serif" font-size="14" lengthAdjust="spacing" textLength="184" x="418" y="587.4082">Future&lt;bool&gt; startListening()</text><ellipse cx="409" cy="600.7891" fill="#84BE84" rx="3" ry="3" style="stroke:#038048;stroke-width:1.0;"/><text fill="#000000" font-family="sans-serif" font-size="14" lengthAdjust="spacing" textLength="183" x="418" y="605.0176">Future&lt;bool&gt; stopListening()</text><ellipse cx="409" cy="618.3984" fill="#84BE84" rx="3" ry="3" style="stroke:#038048;stroke-width:1.0;"/><text fill="#000000" font-family="sans-serif" font-size="14" lengthAdjust="spacing" textLength="172" x="418" y="622.627">void clearRecognizedText()</text></g><!--class BirdRecognitionService--><g id="elem_BirdRecognitionService"><rect codeLine="26" fill="#F1F1F1" height="100.8281" id="BirdRecognitionService" rx="2.5" ry="2.5" style="stroke:#181818;stroke-width:0.5;" width="215" x="643.5" y="458.5"/><ellipse cx="674.7" cy="474.5" fill="#ADD1B2" rx="11" ry="11" style="stroke:#181818;stroke-width:1.0;"/><path d="M677.4656,470.375 Q677.6219,470.1563 677.8094,470.0469 Q677.9969,469.9375 678.2156,469.9375 Q678.5906,469.9375 678.825,470.2031 Q679.0594,470.4531 679.0594,471.0625 L679.0594,472.5156 Q679.0594,473.125 678.825,473.3906 Q678.5906,473.6563 678.2156,473.6563 Q677.8719,473.6563 677.6688,473.4531 Q677.4656,473.2656 677.3563,472.75 Q677.3094,472.3906 677.1219,472.2031 Q676.7938,471.8281 676.1844,471.6094 Q675.575,471.3906 674.95,471.3906 Q674.1844,471.3906 673.5438,471.7188 Q672.9188,472.0469 672.4188,472.7969 Q671.9344,473.5469 671.9344,474.5781 L671.9344,475.6719 Q671.9344,476.9063 672.825,477.7344 Q673.7156,478.5469 675.3094,478.5469 Q676.2469,478.5469 676.9031,478.2969 Q677.2938,478.1406 677.7156,477.7031 Q677.9813,477.4375 678.1219,477.3594 Q678.2781,477.2813 678.4813,477.2813 Q678.8094,477.2813 679.0594,477.5469 Q679.325,477.7969 679.325,478.1406 Q679.325,478.4844 678.9813,478.8906 Q678.4813,479.4688 677.6844,479.7969 Q676.6063,480.25 675.3094,480.25 Q673.7938,480.25 672.5906,479.625 Q671.6063,479.125 670.9188,478.0625 Q670.2313,476.9844 670.2313,475.7031 L670.2313,474.5469 Q670.2313,473.2188 670.8406,472.0781 Q671.4656,470.9219 672.5594,470.3125 Q673.6531,469.6875 674.8875,469.6875 Q675.6219,469.6875 676.2625,469.8594 Q676.9188,470.0156 677.4656,470.375 Z " fill="#000000"/><text fill="#000000" font-family="sans-serif" font-size="14" lengthAdjust="spacing" textLength="147" x="692.3" y="480.2285">BirdRecognitionService</text><line style="stroke:#181818;stroke-width:0.5;" x1="644.5" x2="857.5" y1="490.5" y2="490.5"/><rect fill="none" height="6" style="stroke:#C82930;stroke-width:1.0;" width="6" x="651.5" y="501.8047"/><text fill="#000000" font-family="sans-serif" font-size="14" lengthAdjust="spacing" textLength="120" x="663.5" y="509.0332">String matchedBird</text><line style="stroke:#181818;stroke-width:0.5;" x1="644.5" x2="857.5" y1="516.1094" y2="516.1094"/><ellipse cx="654.5" cy="530.4141" fill="#84BE84" rx="3" ry="3" style="stroke:#038048;stroke-width:1.0;"/><text fill="#000000" font-family="sans-serif" font-size="14" lengthAdjust="spacing" textLength="154" x="663.5" y="534.6426">String get matchedBird()</text><ellipse cx="654.5" cy="548.0234" fill="#84BE84" rx="3" ry="3" style="stroke:#038048;stroke-width:1.0;"/><text fill="#000000" font-family="sans-serif" font-size="14" lengthAdjust="spacing" textLength="189" x="663.5" y="552.252">void recognizeBird(String text)</text></g><!--class WordRecognitionService--><g id="elem_WordRecognitionService"><rect codeLine="32" fill="#F1F1F1" height="65.6094" id="WordRecognitionService" rx="2.5" ry="2.5" style="stroke:#181818;stroke-width:0.5;" width="224" x="894" y="476"/><ellipse cx="925.2" cy="492" fill="#ADD1B2" rx="11" ry="11" style="stroke:#181818;stroke-width:1.0;"/><path d="M927.9656,487.875 Q928.1219,487.6563 928.3094,487.5469 Q928.4969,487.4375 928.7156,487.4375 Q929.0906,487.4375 929.325,487.7031 Q929.5594,487.9531 929.5594,488.5625 L929.5594,490.0156 Q929.5594,490.625 929.325,490.8906 Q929.0906,491.1563 928.7156,491.1563 Q928.3719,491.1563 928.1688,490.9531 Q927.9656,490.7656 927.8563,490.25 Q927.8094,489.8906 927.6219,489.7031 Q927.2938,489.3281 926.6844,489.1094 Q926.075,488.8906 925.45,488.8906 Q924.6844,488.8906 924.0438,489.2188 Q923.4188,489.5469 922.9188,490.2969 Q922.4344,491.0469 922.4344,492.0781 L922.4344,493.1719 Q922.4344,494.4063 923.325,495.2344 Q924.2156,496.0469 925.8094,496.0469 Q926.7469,496.0469 927.4031,495.7969 Q927.7938,495.6406 928.2156,495.2031 Q928.4813,494.9375 928.6219,494.8594 Q928.7781,494.7813 928.9813,494.7813 Q929.3094,494.7813 929.5594,495.0469 Q929.825,495.2969 929.825,495.6406 Q929.825,495.9844 929.4813,496.3906 Q928.9813,496.9688 928.1844,497.2969 Q927.1063,497.75 925.8094,497.75 Q924.2938,497.75 923.0906,497.125 Q922.1063,496.625 921.4188,495.5625 Q920.7313,494.4844 920.7313,493.2031 L920.7313,492.0469 Q920.7313,490.7188 921.3406,489.5781 Q921.9656,488.4219 923.0594,487.8125 Q924.1531,487.1875 925.3875,487.1875 Q926.1219,487.1875 926.7625,487.3594 Q927.4188,487.5156 927.9656,487.875 Z " fill="#000000"/><text fill="#000000" font-family="sans-serif" font-size="14" lengthAdjust="spacing" textLength="156" x="942.8" y="497.7285">WordRecognitionService</text><line style="stroke:#181818;stroke-width:0.5;" x1="895" x2="1117" y1="508" y2="508"/><line style="stroke:#181818;stroke-width:0.5;" x1="895" x2="1117" y1="516" y2="516"/><ellipse cx="905" cy="530.3047" fill="#84BE84" rx="3" ry="3" style="stroke:#038048;stroke-width:1.0;"/><text fill="#000000" font-family="sans-serif" font-size="14" lengthAdjust="spacing" textLength="198" x="914" y="534.5332">void recognizeWord(String text)</text></g><!--class ObservationUploader--><g id="elem_ObservationUploader"><rect codeLine="36" fill="#F1F1F1" height="329.75" id="ObservationUploader" rx="2.5" ry="2.5" style="stroke:#181818;stroke-width:0.5;" width="1746" x="1153" y="344"/><ellipse cx="1954.75" cy="360" fill="#ADD1B2" rx="11" ry="11" style="stroke:#181818;stroke-width:1.0;"/><path d="M1957.5156,355.875 Q1957.6719,355.6563 1957.8594,355.5469 Q1958.0469,355.4375 1958.2656,355.4375 Q1958.6406,355.4375 1958.875,355.7031 Q1959.1094,355.9531 1959.1094,356.5625 L1959.1094,358.0156 Q1959.1094,358.625 1958.875,358.8906 Q1958.6406,359.1563 1958.2656,359.1563 Q1957.9219,359.1563 1957.7188,358.9531 Q1957.5156,358.7656 1957.4063,358.25 Q1957.3594,357.8906 1957.1719,357.7031 Q1956.8438,357.3281 1956.2344,357.1094 Q1955.625,356.8906 1955,356.8906 Q1954.2344,356.8906 1953.5938,357.2188 Q1952.9688,357.5469 1952.4688,358.2969 Q1951.9844,359.0469 1951.9844,360.0781 L1951.9844,361.1719 Q1951.9844,362.4063 1952.875,363.2344 Q1953.7656,364.0469 1955.3594,364.0469 Q1956.2969,364.0469 1956.9531,363.7969 Q1957.3438,363.6406 1957.7656,363.2031 Q1958.0313,362.9375 1958.1719,362.8594 Q1958.3281,362.7813 1958.5313,362.7813 Q1958.8594,362.7813 1959.1094,363.0469 Q1959.375,363.2969 1959.375,363.6406 Q1959.375,363.9844 1959.0313,364.3906 Q1958.5313,364.9688 1957.7344,365.2969 Q1956.6563,365.75 1955.3594,365.75 Q1953.8438,365.75 1952.6406,365.125 Q1951.6563,364.625 1950.9688,363.5625 Q1950.2813,362.4844 1950.2813,361.2031 L1950.2813,360.0469 Q1950.2813,358.7188 1950.8906,357.5781 Q1951.5156,356.4219 1952.6094,355.8125 Q1953.7031,355.1875 1954.9375,355.1875 Q1955.6719,355.1875 1956.3125,355.3594 Q1956.9688,355.5156 1957.5156,355.875 Z " fill="#000000"/><text fill="#000000" font-family="sans-serif" font-size="14" lengthAdjust="spacing" textLength="134" x="1975.25" y="365.7285">ObservationUploader</text><line style="stroke:#181818;stroke-width:0.5;" x1="1154" x2="2898" y1="376" y2="376"/><rect fill="none" height="6" style="stroke:#C82930;stroke-width:1.0;" width="6" x="1161" y="387.3047"/><text fill="#000000" font-family="sans-serif" font-size="14" lengthAdjust="spacing" textLength="226" x="1173" y="394.5332">DatabaseService _databaseService</text><rect fill="none" height="6" style="stroke:#C82930;stroke-width:1.0;" width="6" x="1161" y="404.9141"/><text fill="#000000" font-family="sans-serif" font-size="14" lengthAdjust="spacing" textLength="257" x="1173" y="412.1426">ObservationService _observationService</text><rect fill="none" height="6" style="stroke:#C82930;stroke-width:1.0;" width="6" x="1161" y="422.5234"/><text fill="#000000" font-family="sans-serif" font-size="14" lengthAdjust="spacing" textLength="295" x="1173" y="429.752">UploadNotificationService? _notificationService</text><rect fill="none" height="6" style="stroke:#C82930;stroke-width:1.0;" width="6" x="1161" y="440.1328"/><text fill="#000000" font-family="sans-serif" font-size="14" lengthAdjust="spacing" textLength="114" x="1173" y="447.3613">bool _debugMode</text><rect fill="none" height="6" style="stroke:#C82930;stroke-width:1.0;" width="6" x="1161" y="457.7422"/><text fill="#000000" font-family="sans-serif" font-size="14" lengthAdjust="spacing" textLength="145" x="1173" y="464.9707">String? _errorMessage</text><rect fill="none" height="6" style="stroke:#C82930;stroke-width:1.0;" width="6" x="1161" y="475.3516"/><text fill="#000000" font-family="sans-serif" font-size="14" lengthAdjust="spacing" textLength="112" x="1173" y="482.5801">bool _isUploading</text><rect fill="none" height="6" style="stroke:#C82930;stroke-width:1.0;" width="6" x="1161" y="492.9609"/><text fill="#000000" font-family="sans-serif" font-size="14" lengthAdjust="spacing" textLength="184" x="1173" y="500.1895">String? _lastUploadBirdName</text><rect fill="none" height="6" style="stroke:#C82930;stroke-width:1.0;" width="6" x="1161" y="510.5703"/><text fill="#000000" font-family="sans-serif" font-size="14" lengthAdjust="spacing" textLength="178" x="1173" y="517.7988">DateTime? _lastUploadTime</text><rect fill="none" height="6" style="stroke:#C82930;stroke-width:1.0;" width="6" x="1161" y="528.1797"/><text fill="#000000" font-family="sans-serif" font-size="14" lengthAdjust="spacing" textLength="152" x="1173" y="535.4082">bool _processingUpload</text><rect fill="none" height="6" style="stroke:#C82930;stroke-width:1.0;" width="6" x="1161" y="545.7891"/><text fill="#000000" font-family="sans-serif" font-size="14" lengthAdjust="spacing" textLength="87" x="1173" y="553.0176">bool _isActive</text><line style="stroke:#181818;stroke-width:0.5;" x1="1154" x2="2898" y1="560.0938" y2="560.0938"/><ellipse cx="1164" cy="574.3984" fill="#84BE84" rx="3" ry="3" style="stroke:#038048;stroke-width:1.0;"/><text fill="#000000" font-family="sans-serif" font-size="14" lengthAdjust="spacing" textLength="138" x="1173" y="578.627">bool get isUploading()</text><ellipse cx="1164" cy="592.0078" fill="#84BE84" rx="3" ry="3" style="stroke:#038048;stroke-width:1.0;"/><text fill="#000000" font-family="sans-serif" font-size="14" lengthAdjust="spacing" textLength="171" x="1173" y="596.2363">String? get errorMessage()</text><ellipse cx="1164" cy="609.6172" fill="#84BE84" rx="3" ry="3" style="stroke:#038048;stroke-width:1.0;"/><text fill="#000000" font-family="sans-serif" font-size="14" lengthAdjust="spacing" textLength="134" x="1173" y="613.8457">bool get isDisposed()</text><ellipse cx="1164" cy="627.2266" fill="#84BE84" rx="3" ry="3" style="stroke:#038048;stroke-width:1.0;"/><text fill="#000000" font-family="sans-serif" font-size="14" lengthAdjust="spacing" textLength="1720" x="1173" y="631.4551">Future&lt;BirdObservation?&gt; saveAndUploadObservation(String birdName, {String? scientificName, String? soundDirectory, int quantity = 1, int observerId = 1, DateTime? observationDate, String? observationTime, int testBatchId = 0, bool isTestData = false, String? sourceId})</text><ellipse cx="1164" cy="644.8359" fill="#84BE84" rx="3" ry="3" style="stroke:#038048;stroke-width:1.0;"/><text fill="#000000" font-family="sans-serif" font-size="14" lengthAdjust="spacing" textLength="132" x="1173" y="649.0645">void notifyListeners()</text><ellipse cx="1164" cy="662.4453" fill="#84BE84" rx="3" ry="3" style="stroke:#038048;stroke-width:1.0;"/><text fill="#000000" font-family="sans-serif" font-size="14" lengthAdjust="spacing" textLength="89" x="1173" y="666.6738">void dispose()</text></g><!--class SpeechCoordinator--><g id="elem_SpeechCoordinator"><rect codeLine="55" fill="#F1F1F1" height="259.3125" id="SpeechCoordinator" rx="2.5" ry="2.5" style="stroke:#181818;stroke-width:0.5;" width="346" x="578" y="7"/><ellipse cx="685.25" cy="23" fill="#ADD1B2" rx="11" ry="11" style="stroke:#181818;stroke-width:1.0;"/><path d="M688.0156,18.875 Q688.1719,18.6563 688.3594,18.5469 Q688.5469,18.4375 688.7656,18.4375 Q689.1406,18.4375 689.375,18.7031 Q689.6094,18.9531 689.6094,19.5625 L689.6094,21.0156 Q689.6094,21.625 689.375,21.8906 Q689.1406,22.1563 688.7656,22.1563 Q688.4219,22.1563 688.2188,21.9531 Q688.0156,21.7656 687.9063,21.25 Q687.8594,20.8906 687.6719,20.7031 Q687.3438,20.3281 686.7344,20.1094 Q686.125,19.8906 685.5,19.8906 Q684.7344,19.8906 684.0938,20.2188 Q683.4688,20.5469 682.9688,21.2969 Q682.4844,22.0469 682.4844,23.0781 L682.4844,24.1719 Q682.4844,25.4063 683.375,26.2344 Q684.2656,27.0469 685.8594,27.0469 Q686.7969,27.0469 687.4531,26.7969 Q687.8438,26.6406 688.2656,26.2031 Q688.5313,25.9375 688.6719,25.8594 Q688.8281,25.7813 689.0313,25.7813 Q689.3594,25.7813 689.6094,26.0469 Q689.875,26.2969 689.875,26.6406 Q689.875,26.9844 689.5313,27.3906 Q689.0313,27.9688 688.2344,28.2969 Q687.1563,28.75 685.8594,28.75 Q684.3438,28.75 683.1406,28.125 Q682.1563,27.625 681.4688,26.5625 Q680.7813,25.4844 680.7813,24.2031 L680.7813,23.0469 Q680.7813,21.7188 681.3906,20.5781 Q682.0156,19.4219 683.1094,18.8125 Q684.2031,18.1875 685.4375,18.1875 Q686.1719,18.1875 686.8125,18.3594 Q687.4688,18.5156 688.0156,18.875 Z " fill="#000000"/><text fill="#000000" font-family="sans-serif" font-size="14" lengthAdjust="spacing" textLength="123" x="705.75" y="28.7285">SpeechCoordinator</text><line style="stroke:#181818;stroke-width:0.5;" x1="579" x2="923" y1="39" y2="39"/><rect fill="none" height="6" style="stroke:#C82930;stroke-width:1.0;" width="6" x="586" y="50.3047"/><text fill="#000000" font-family="sans-serif" font-size="14" lengthAdjust="spacing" textLength="275" x="598" y="57.5332">SpeechRecognitionService _speechService</text><rect fill="none" height="6" style="stroke:#C82930;stroke-width:1.0;" width="6" x="586" y="67.9141"/><text fill="#000000" font-family="sans-serif" font-size="14" lengthAdjust="spacing" textLength="230" x="598" y="75.1426">BirdRecognitionService _birdService</text><rect fill="none" height="6" style="stroke:#C82930;stroke-width:1.0;" width="6" x="586" y="85.5234"/><text fill="#000000" font-family="sans-serif" font-size="14" lengthAdjust="spacing" textLength="245" x="598" y="92.752">WordRecognitionService _wordService</text><rect fill="none" height="6" style="stroke:#C82930;stroke-width:1.0;" width="6" x="586" y="103.1328"/><text fill="#000000" font-family="sans-serif" font-size="14" lengthAdjust="spacing" textLength="246" x="598" y="110.3613">RecordingPlayerService _audioService</text><rect fill="none" height="6" style="stroke:#C82930;stroke-width:1.0;" width="6" x="586" y="120.7422"/><text fill="#000000" font-family="sans-serif" font-size="14" lengthAdjust="spacing" textLength="277" x="598" y="127.9707">ObservationUploader _observationUploader</text><rect fill="none" height="6" style="stroke:#C82930;stroke-width:1.0;" width="6" x="586" y="138.3516"/><text fill="#000000" font-family="sans-serif" font-size="14" lengthAdjust="spacing" textLength="190" x="598" y="145.5801">bool isWaitingForConfirmation</text><rect fill="none" height="6" style="stroke:#C82930;stroke-width:1.0;" width="6" x="586" y="155.9609"/><text fill="#000000" font-family="sans-serif" font-size="14" lengthAdjust="spacing" textLength="179" x="598" y="163.1895">String currentBirdInQuestion</text><line style="stroke:#181818;stroke-width:0.5;" x1="579" x2="923" y1="170.2656" y2="170.2656"/><ellipse cx="589" cy="184.5703" fill="#84BE84" rx="3" ry="3" style="stroke:#038048;stroke-width:1.0;"/><text fill="#000000" font-family="sans-serif" font-size="14" lengthAdjust="spacing" textLength="132" x="598" y="188.7988">bool get isListening()</text><ellipse cx="589" cy="202.1797" fill="#84BE84" rx="3" ry="3" style="stroke:#038048;stroke-width:1.0;"/><text fill="#000000" font-family="sans-serif" font-size="14" lengthAdjust="spacing" textLength="125" x="598" y="206.4082">void startListening()</text><ellipse cx="589" cy="219.7891" fill="#84BE84" rx="3" ry="3" style="stroke:#038048;stroke-width:1.0;"/><text fill="#000000" font-family="sans-serif" font-size="14" lengthAdjust="spacing" textLength="124" x="598" y="224.0176">void stopListening()</text><ellipse cx="589" cy="237.3984" fill="#84BE84" rx="3" ry="3" style="stroke:#038048;stroke-width:1.0;"/><text fill="#000000" font-family="sans-serif" font-size="14" lengthAdjust="spacing" textLength="284" x="598" y="241.627">void handleBirdRecognition(String birdName)</text><ellipse cx="589" cy="255.0078" fill="#84BE84" rx="3" ry="3" style="stroke:#038048;stroke-width:1.0;"/><text fill="#000000" font-family="sans-serif" font-size="14" lengthAdjust="spacing" textLength="320" x="598" y="259.2363">void handleConfirmationResponse(bool confirmed)</text></g><!--link SpeechCoordinator to SpeechRecognitionService--><g id="link_SpeechCoordinator_SpeechRecognitionService"><path codeLine="70" d="M664.96,266.04 C638.52,305.54 612.8677,343.864 586.8077,382.794 " fill="none" id="SpeechCoordinator-to-SpeechRecognitionService" style="stroke:#181818;stroke-width:1.0;"/><polygon fill="#181818" points="583.47,387.78,591.8005,382.5261,586.2514,383.625,585.1525,378.0759,583.47,387.78" style="stroke:#181818;stroke-width:1.0;"/><text fill="#000000" font-family="sans-serif" font-size="13" lengthAdjust="spacing" textLength="28" x="643" y="310.4951">uses</text></g><!--link SpeechCoordinator to BirdRecognitionService--><g id="link_SpeechCoordinator_BirdRecognitionService"><path codeLine="71" d="M751,266.04 C751,332.3 751,403.26 751,452.27 " fill="none" id="SpeechCoordinator-to-BirdRecognitionService" style="stroke:#181818;stroke-width:1.0;"/><polygon fill="#181818" points="751,458.27,755,449.27,751,453.27,747,449.27,751,458.27" style="stroke:#181818;stroke-width:1.0;"/><text fill="#000000" font-family="sans-serif" font-size="13" lengthAdjust="spacing" textLength="28" x="752" y="310.4951">uses</text></g><!--link SpeechCoordinator to WordRecognitionService--><g id="link_SpeechCoordinator_WordRecognitionService"><path codeLine="72" d="M839.47,266.04 C890.97,340.87 948.4688,424.4072 980.4388,470.8672 " fill="none" id="SpeechCoordinator-to-WordRecognitionService" style="stroke:#181818;stroke-width:1.0;"/><polygon fill="#181818" points="983.84,475.81,982.0333,466.1283,981.0056,471.691,975.4429,470.6633,983.84,475.81" style="stroke:#181818;stroke-width:1.0;"/><text fill="#000000" font-family="sans-serif" font-size="13" lengthAdjust="spacing" textLength="28" x="872" y="310.4951">uses</text></g><!--link SpeechCoordinator to RecordingPlayerService--><g id="link_SpeechCoordinator_RecordingPlayerService"><path codeLine="73" d="M577.9,224.94 C514.08,259.47 442.21,301.11 380,344 C345.4,367.85 314.1954,392.6968 282.8854,419.3968 " fill="none" id="SpeechCoordinator-to-RecordingPlayerService" style="stroke:#181818;stroke-width:1.0;"/><polygon fill="#181818" points="278.32,423.29,287.7636,420.4938,282.1245,420.0457,282.5726,414.4066,278.32,423.29" style="stroke:#181818;stroke-width:1.0;"/><text fill="#000000" font-family="sans-serif" font-size="13" lengthAdjust="spacing" textLength="28" x="450" y="310.4951">uses</text></g><!--link SpeechCoordinator to ObservationUploader--><g id="link_SpeechCoordinator_ObservationUploader"><path codeLine="74" d="M924.28,187.85 C1063.43,228.29 1261.2783,285.786 1455.7083,342.276 " fill="none" id="SpeechCoordinator-to-ObservationUploader" style="stroke:#181818;stroke-width:1.0;"/><polygon fill="#181818" points="1461.47,343.95,1453.9434,337.5978,1456.6686,342.555,1451.7114,345.2801,1461.47,343.95" style="stroke:#181818;stroke-width:1.0;"/><text fill="#000000" font-family="sans-serif" font-size="13" lengthAdjust="spacing" textLength="28" x="1352" y="310.4951">uses</text></g><!--SRC=[bLLTRzem57tdL_Ynqq3gNgUj28egeQrT1qnzZ1px0fQ2dTaE6wlwttTj9y59CDFUu9vpFtpkHrX1ZI4hO4fp8NVF1Js1NeC-2WRaTKJ8XEHA5IGJnc58yRQrrVXpIZ9MQGtIpYek52Bl0ti7bhGED-yyy53PIiEdenByZfG8pONctoimLYXv4mAI76rFz01NNEwLt0fzeF_XzgpLeRGDkVJ_li3f0jjOLVgtOD5len7pwgnB0BPt6ksaS6alwxDq82t47-0T-rTXBCYkSYJJ8HoID_3RUeYhAYy0DNKlv20PTBK6hPL-16Fe3lfQHybhlIEmhQ26wXeSs2sZsoeNmKb2jUr7w35KsISuEGahWEfLFqEhg-jcKjMwHkmpsmDtr7xf4HGdRL_aWPflCNMK-KKbC_UZE6eYohVSeACVn1zbeIW7NHU_e9Rcr40JEEDTWoT5xYrF3MoU6i8_AIksWiKeJeKSMgFnuv1NkqV5hu_IULX3fi6QutjjWERrgZNlX8quG8VX355CN3U6YJ1EW3lfPioAus2Oso8wyphrQ5pvSD8NmfJAj3jGZwchEL9xYYDBZp2JF2IAeFv16PFN9hbX0W-Tape0hLrLaYy43enL-ZGcGbhoiw98jIVocNm8bj1Oq4iUR6VbefOxupbm13XcY6FnNixTuFj0j-FmU64sQ7TJXyOjBKotFirWoT-Y7V4pSmex2zh4wyE3WiFxTw_y9uBYAviLJTt5p7WadiR4hcTEw9YNsCpib-ho4b-iZBhZdTYoTadZDMkCvx4KveLYShbxK3h-sCHdgVxikLSjPVCH-zVPzVfUFASraZYZUofv0Jq5Bt_w8dvS-WgmgHAxwgjZ0G7kUppixcHob-xjHr8PC0clH9Ul-YGwVjKdqVshFfS6eNRu2m00]--></g></svg>