<?xml version="1.0" encoding="us-ascii" standalone="no"?><svg xmlns="http://www.w3.org/2000/svg" xmlns:xlink="http://www.w3.org/1999/xlink" contentStyleType="text/css" height="982px" preserveAspectRatio="none" style="width:1102px;height:982px;background:#FFFFFF;" version="1.1" viewBox="0 0 1102 982" width="1102px" zoomAndPan="magnify"><defs/><g><!--class ObservationUploader--><g id="elem_ObservationUploader"><rect codeLine="2" fill="#F1F1F1" height="435.4063" id="ObservationUploader" rx="2.5" ry="2.5" style="stroke:#181818;stroke-width:0.5;" width="468" x="492.5" y="7"/><ellipse cx="655.25" cy="23" fill="#ADD1B2" rx="11" ry="11" style="stroke:#181818;stroke-width:1.0;"/><path d="M658.0156,18.875 Q658.1719,18.6563 658.3594,18.5469 Q658.5469,18.4375 658.7656,18.4375 Q659.1406,18.4375 659.375,18.7031 Q659.6094,18.9531 659.6094,19.5625 L659.6094,21.0156 Q659.6094,21.625 659.375,21.8906 Q659.1406,22.1563 658.7656,22.1563 Q658.4219,22.1563 658.2188,21.9531 Q658.0156,21.7656 657.9063,21.25 Q657.8594,20.8906 657.6719,20.7031 Q657.3438,20.3281 656.7344,20.1094 Q656.125,19.8906 655.5,19.8906 Q654.7344,19.8906 654.0938,20.2188 Q653.4688,20.5469 652.9688,21.2969 Q652.4844,22.0469 652.4844,23.0781 L652.4844,24.1719 Q652.4844,25.4063 653.375,26.2344 Q654.2656,27.0469 655.8594,27.0469 Q656.7969,27.0469 657.4531,26.7969 Q657.8438,26.6406 658.2656,26.2031 Q658.5313,25.9375 658.6719,25.8594 Q658.8281,25.7813 659.0313,25.7813 Q659.3594,25.7813 659.6094,26.0469 Q659.875,26.2969 659.875,26.6406 Q659.875,26.9844 659.5313,27.3906 Q659.0313,27.9688 658.2344,28.2969 Q657.1563,28.75 655.8594,28.75 Q654.3438,28.75 653.1406,28.125 Q652.1563,27.625 651.4688,26.5625 Q650.7813,25.4844 650.7813,24.2031 L650.7813,23.0469 Q650.7813,21.7188 651.3906,20.5781 Q652.0156,19.4219 653.1094,18.8125 Q654.2031,18.1875 655.4375,18.1875 Q656.1719,18.1875 656.8125,18.3594 Q657.4688,18.5156 658.0156,18.875 Z " fill="#000000"/><text fill="#000000" font-family="sans-serif" font-size="14" lengthAdjust="spacing" textLength="134" x="675.75" y="28.7285">ObservationUploader</text><line style="stroke:#181818;stroke-width:0.5;" x1="493.5" x2="959.5" y1="39" y2="39"/><rect fill="none" height="6" style="stroke:#C82930;stroke-width:1.0;" width="6" x="500.5" y="50.3047"/><text fill="#000000" font-family="sans-serif" font-size="14" lengthAdjust="spacing" textLength="226" x="512.5" y="57.5332">DatabaseService _databaseService</text><rect fill="none" height="6" style="stroke:#C82930;stroke-width:1.0;" width="6" x="500.5" y="67.9141"/><text fill="#000000" font-family="sans-serif" font-size="14" lengthAdjust="spacing" textLength="257" x="512.5" y="75.1426">ObservationService _observationService</text><rect fill="none" height="6" style="stroke:#C82930;stroke-width:1.0;" width="6" x="500.5" y="85.5234"/><text fill="#000000" font-family="sans-serif" font-size="14" lengthAdjust="spacing" textLength="295" x="512.5" y="92.752">UploadNotificationService? _notificationService</text><rect fill="none" height="6" style="stroke:#C82930;stroke-width:1.0;" width="6" x="500.5" y="103.1328"/><text fill="#000000" font-family="sans-serif" font-size="14" lengthAdjust="spacing" textLength="114" x="512.5" y="110.3613">bool _debugMode</text><rect fill="none" height="6" style="stroke:#C82930;stroke-width:1.0;" width="6" x="500.5" y="120.7422"/><text fill="#000000" font-family="sans-serif" font-size="14" lengthAdjust="spacing" textLength="145" x="512.5" y="127.9707">String? _errorMessage</text><rect fill="none" height="6" style="stroke:#C82930;stroke-width:1.0;" width="6" x="500.5" y="138.3516"/><text fill="#000000" font-family="sans-serif" font-size="14" lengthAdjust="spacing" textLength="112" x="512.5" y="145.5801">bool _isUploading</text><rect fill="none" height="6" style="stroke:#C82930;stroke-width:1.0;" width="6" x="500.5" y="155.9609"/><text fill="#000000" font-family="sans-serif" font-size="14" lengthAdjust="spacing" textLength="184" x="512.5" y="163.1895">String? _lastUploadBirdName</text><rect fill="none" height="6" style="stroke:#C82930;stroke-width:1.0;" width="6" x="500.5" y="173.5703"/><text fill="#000000" font-family="sans-serif" font-size="14" lengthAdjust="spacing" textLength="178" x="512.5" y="180.7988">DateTime? _lastUploadTime</text><rect fill="none" height="6" style="stroke:#C82930;stroke-width:1.0;" width="6" x="500.5" y="191.1797"/><text fill="#000000" font-family="sans-serif" font-size="14" lengthAdjust="spacing" textLength="152" x="512.5" y="198.4082">bool _processingUpload</text><rect fill="none" height="6" style="stroke:#C82930;stroke-width:1.0;" width="6" x="500.5" y="208.7891"/><text fill="#000000" font-family="sans-serif" font-size="14" lengthAdjust="spacing" textLength="87" x="512.5" y="216.0176">bool _isActive</text><line style="stroke:#181818;stroke-width:0.5;" x1="493.5" x2="959.5" y1="223.0938" y2="223.0938"/><ellipse cx="503.5" cy="237.3984" fill="#84BE84" rx="3" ry="3" style="stroke:#038048;stroke-width:1.0;"/><text fill="#000000" font-family="sans-serif" font-size="14" lengthAdjust="spacing" textLength="138" x="512.5" y="241.627">bool get isUploading()</text><ellipse cx="503.5" cy="255.0078" fill="#84BE84" rx="3" ry="3" style="stroke:#038048;stroke-width:1.0;"/><text fill="#000000" font-family="sans-serif" font-size="14" lengthAdjust="spacing" textLength="171" x="512.5" y="259.2363">String? get errorMessage()</text><ellipse cx="503.5" cy="272.6172" fill="#84BE84" rx="3" ry="3" style="stroke:#038048;stroke-width:1.0;"/><text fill="#000000" font-family="sans-serif" font-size="14" lengthAdjust="spacing" textLength="134" x="512.5" y="276.8457">bool get isDisposed()</text><ellipse cx="503.5" cy="290.2266" fill="#84BE84" rx="3" ry="3" style="stroke:#038048;stroke-width:1.0;"/><text fill="#000000" font-family="sans-serif" font-size="14" lengthAdjust="spacing" textLength="442" x="512.5" y="294.4551">saveAndUploadObservation(birdName, ...): Future&lt;BirdObservation?&gt;</text><ellipse cx="503.5" cy="307.8359" fill="#84BE84" rx="3" ry="3" style="stroke:#038048;stroke-width:1.0;"/><text fill="#000000" font-family="sans-serif" font-size="14" lengthAdjust="spacing" textLength="102" x="512.5" y="312.0645">notifyListeners()</text><ellipse cx="503.5" cy="325.4453" fill="#84BE84" rx="3" ry="3" style="stroke:#038048;stroke-width:1.0;"/><text fill="#000000" font-family="sans-serif" font-size="14" lengthAdjust="spacing" textLength="59" x="512.5" y="329.6738">dispose()</text><text fill="#000000" font-family="sans-serif" font-size="14" lengthAdjust="spacing" textLength="4" x="512.5" y="347.2832">&#160;</text><rect fill="#F24D5C" height="6" style="stroke:#C82930;stroke-width:1.0;" width="6" x="500.5" y="357.6641"/><text fill="#000000" font-family="sans-serif" font-size="14" lengthAdjust="spacing" textLength="308" x="512.5" y="364.8926">_generateSoundDirectory(scientificName): String</text><rect fill="#F24D5C" height="6" style="stroke:#C82930;stroke-width:1.0;" width="6" x="500.5" y="375.2734"/><text fill="#000000" font-family="sans-serif" font-size="14" lengthAdjust="spacing" textLength="256" x="512.5" y="382.502">_getCurrentLocation(): Future&lt;Position&gt;</text><rect fill="#F24D5C" height="6" style="stroke:#C82930;stroke-width:1.0;" width="6" x="500.5" y="392.8828"/><text fill="#000000" font-family="sans-serif" font-size="14" lengthAdjust="spacing" textLength="340" x="512.5" y="400.1113">_createBirdObservation(...): Future&lt;BirdObservation&gt;</text><rect fill="#F24D5C" height="6" style="stroke:#C82930;stroke-width:1.0;" width="6" x="500.5" y="410.4922"/><text fill="#000000" font-family="sans-serif" font-size="14" lengthAdjust="spacing" textLength="341" x="512.5" y="417.7207">_uploadObservationToApi(observation): Future&lt;void&gt;</text><rect fill="#F24D5C" height="6" style="stroke:#C82930;stroke-width:1.0;" width="6" x="500.5" y="428.1016"/><text fill="#000000" font-family="sans-serif" font-size="14" lengthAdjust="spacing" textLength="170" x="512.5" y="435.3301">_logDebug(message): void</text></g><!--class DatabaseService--><g id="elem_DatabaseService"><rect codeLine="28" fill="#F1F1F1" height="100.8281" id="DatabaseService" rx="2.5" ry="2.5" style="stroke:#181818;stroke-width:0.5;" width="377" x="7" y="520"/><ellipse cx="137.25" cy="536" fill="#ADD1B2" rx="11" ry="11" style="stroke:#181818;stroke-width:1.0;"/><path d="M140.0156,531.875 Q140.1719,531.6563 140.3594,531.5469 Q140.5469,531.4375 140.7656,531.4375 Q141.1406,531.4375 141.375,531.7031 Q141.6094,531.9531 141.6094,532.5625 L141.6094,534.0156 Q141.6094,534.625 141.375,534.8906 Q141.1406,535.1563 140.7656,535.1563 Q140.4219,535.1563 140.2188,534.9531 Q140.0156,534.7656 139.9063,534.25 Q139.8594,533.8906 139.6719,533.7031 Q139.3438,533.3281 138.7344,533.1094 Q138.125,532.8906 137.5,532.8906 Q136.7344,532.8906 136.0938,533.2188 Q135.4688,533.5469 134.9688,534.2969 Q134.4844,535.0469 134.4844,536.0781 L134.4844,537.1719 Q134.4844,538.4063 135.375,539.2344 Q136.2656,540.0469 137.8594,540.0469 Q138.7969,540.0469 139.4531,539.7969 Q139.8438,539.6406 140.2656,539.2031 Q140.5313,538.9375 140.6719,538.8594 Q140.8281,538.7813 141.0313,538.7813 Q141.3594,538.7813 141.6094,539.0469 Q141.875,539.2969 141.875,539.6406 Q141.875,539.9844 141.5313,540.3906 Q141.0313,540.9688 140.2344,541.2969 Q139.1563,541.75 137.8594,541.75 Q136.3438,541.75 135.1406,541.125 Q134.1563,540.625 133.4688,539.5625 Q132.7813,538.4844 132.7813,537.2031 L132.7813,536.0469 Q132.7813,534.7188 133.3906,533.5781 Q134.0156,532.4219 135.1094,531.8125 Q136.2031,531.1875 137.4375,531.1875 Q138.1719,531.1875 138.8125,531.3594 Q139.4688,531.5156 140.0156,531.875 Z " fill="#000000"/><text fill="#000000" font-family="sans-serif" font-size="14" lengthAdjust="spacing" textLength="108" x="157.75" y="541.7285">DatabaseService</text><line style="stroke:#181818;stroke-width:0.5;" x1="8" x2="383" y1="552" y2="552"/><ellipse cx="18" cy="566.3047" fill="none" rx="3" ry="3" style="stroke:#038048;stroke-width:1.0;"/><text fill="#000000" font-family="sans-serif" font-size="14" lengthAdjust="spacing" textLength="12" x="27" y="570.5332">...</text><line style="stroke:#181818;stroke-width:0.5;" x1="8" x2="383" y1="577.6094" y2="577.6094"/><ellipse cx="18" cy="591.9141" fill="#84BE84" rx="3" ry="3" style="stroke:#038048;stroke-width:1.0;"/><text fill="#000000" font-family="sans-serif" font-size="14" lengthAdjust="spacing" textLength="351" x="27" y="596.1426">getBirdByCommonName(commonName): Future&lt;Bird?&gt;</text><ellipse cx="18" cy="609.5234" fill="#84BE84" rx="3" ry="3" style="stroke:#038048;stroke-width:1.0;"/><text fill="#000000" font-family="sans-serif" font-size="14" lengthAdjust="spacing" textLength="291" x="27" y="613.752">addBirdObservation(observation): Future&lt;int&gt;</text></g><!--class ObservationService--><g id="elem_ObservationService"><rect codeLine="34" fill="#F1F1F1" height="83.2188" id="ObservationService" rx="2.5" ry="2.5" style="stroke:#181818;stroke-width:0.5;" width="298" x="419.5" y="529"/><ellipse cx="502.25" cy="545" fill="#ADD1B2" rx="11" ry="11" style="stroke:#181818;stroke-width:1.0;"/><path d="M505.0156,540.875 Q505.1719,540.6563 505.3594,540.5469 Q505.5469,540.4375 505.7656,540.4375 Q506.1406,540.4375 506.375,540.7031 Q506.6094,540.9531 506.6094,541.5625 L506.6094,543.0156 Q506.6094,543.625 506.375,543.8906 Q506.1406,544.1563 505.7656,544.1563 Q505.4219,544.1563 505.2188,543.9531 Q505.0156,543.7656 504.9063,543.25 Q504.8594,542.8906 504.6719,542.7031 Q504.3438,542.3281 503.7344,542.1094 Q503.125,541.8906 502.5,541.8906 Q501.7344,541.8906 501.0938,542.2188 Q500.4688,542.5469 499.9688,543.2969 Q499.4844,544.0469 499.4844,545.0781 L499.4844,546.1719 Q499.4844,547.4063 500.375,548.2344 Q501.2656,549.0469 502.8594,549.0469 Q503.7969,549.0469 504.4531,548.7969 Q504.8438,548.6406 505.2656,548.2031 Q505.5313,547.9375 505.6719,547.8594 Q505.8281,547.7813 506.0313,547.7813 Q506.3594,547.7813 506.6094,548.0469 Q506.875,548.2969 506.875,548.6406 Q506.875,548.9844 506.5313,549.3906 Q506.0313,549.9688 505.2344,550.2969 Q504.1563,550.75 502.8594,550.75 Q501.3438,550.75 500.1406,550.125 Q499.1563,549.625 498.4688,548.5625 Q497.7813,547.4844 497.7813,546.2031 L497.7813,545.0469 Q497.7813,543.7188 498.3906,542.5781 Q499.0156,541.4219 500.1094,540.8125 Q501.2031,540.1875 502.4375,540.1875 Q503.1719,540.1875 503.8125,540.3594 Q504.4688,540.5156 505.0156,540.875 Z " fill="#000000"/><text fill="#000000" font-family="sans-serif" font-size="14" lengthAdjust="spacing" textLength="124" x="522.75" y="550.7285">ObservationService</text><line style="stroke:#181818;stroke-width:0.5;" x1="420.5" x2="716.5" y1="561" y2="561"/><ellipse cx="430.5" cy="575.3047" fill="none" rx="3" ry="3" style="stroke:#038048;stroke-width:1.0;"/><text fill="#000000" font-family="sans-serif" font-size="14" lengthAdjust="spacing" textLength="12" x="439.5" y="579.5332">...</text><line style="stroke:#181818;stroke-width:0.5;" x1="420.5" x2="716.5" y1="586.6094" y2="586.6094"/><ellipse cx="430.5" cy="600.9141" fill="#84BE84" rx="3" ry="3" style="stroke:#038048;stroke-width:1.0;"/><text fill="#000000" font-family="sans-serif" font-size="14" lengthAdjust="spacing" textLength="272" x="439.5" y="605.1426">uploadObservation(apiData): Future&lt;bool&gt;</text></g><!--class UploadNotificationService--><g id="elem_UploadNotificationService"><rect codeLine="39" fill="#F1F1F1" height="83.2188" id="UploadNotificationService" rx="2.5" ry="2.5" style="stroke:#181818;stroke-width:0.5;" width="264" x="752.5" y="529"/><ellipse cx="800.25" cy="545" fill="#ADD1B2" rx="11" ry="11" style="stroke:#181818;stroke-width:1.0;"/><path d="M803.0156,540.875 Q803.1719,540.6563 803.3594,540.5469 Q803.5469,540.4375 803.7656,540.4375 Q804.1406,540.4375 804.375,540.7031 Q804.6094,540.9531 804.6094,541.5625 L804.6094,543.0156 Q804.6094,543.625 804.375,543.8906 Q804.1406,544.1563 803.7656,544.1563 Q803.4219,544.1563 803.2188,543.9531 Q803.0156,543.7656 802.9063,543.25 Q802.8594,542.8906 802.6719,542.7031 Q802.3438,542.3281 801.7344,542.1094 Q801.125,541.8906 800.5,541.8906 Q799.7344,541.8906 799.0938,542.2188 Q798.4688,542.5469 797.9688,543.2969 Q797.4844,544.0469 797.4844,545.0781 L797.4844,546.1719 Q797.4844,547.4063 798.375,548.2344 Q799.2656,549.0469 800.8594,549.0469 Q801.7969,549.0469 802.4531,548.7969 Q802.8438,548.6406 803.2656,548.2031 Q803.5313,547.9375 803.6719,547.8594 Q803.8281,547.7813 804.0313,547.7813 Q804.3594,547.7813 804.6094,548.0469 Q804.875,548.2969 804.875,548.6406 Q804.875,548.9844 804.5313,549.3906 Q804.0313,549.9688 803.2344,550.2969 Q802.1563,550.75 800.8594,550.75 Q799.3438,550.75 798.1406,550.125 Q797.1563,549.625 796.4688,548.5625 Q795.7813,547.4844 795.7813,546.2031 L795.7813,545.0469 Q795.7813,543.7188 796.3906,542.5781 Q797.0156,541.4219 798.1094,540.8125 Q799.2031,540.1875 800.4375,540.1875 Q801.1719,540.1875 801.8125,540.3594 Q802.4688,540.5156 803.0156,540.875 Z " fill="#000000"/><text fill="#000000" font-family="sans-serif" font-size="14" lengthAdjust="spacing" textLength="160" x="820.75" y="550.7285">UploadNotificationService</text><line style="stroke:#181818;stroke-width:0.5;" x1="753.5" x2="1015.5" y1="561" y2="561"/><line style="stroke:#181818;stroke-width:0.5;" x1="753.5" x2="1015.5" y1="569" y2="569"/><ellipse cx="763.5" cy="583.3047" fill="#84BE84" rx="3" ry="3" style="stroke:#038048;stroke-width:1.0;"/><text fill="#000000" font-family="sans-serif" font-size="14" lengthAdjust="spacing" textLength="238" x="772.5" y="587.5332">showSuccessNotification(observation)</text><ellipse cx="763.5" cy="600.9141" fill="#84BE84" rx="3" ry="3" style="stroke:#038048;stroke-width:1.0;"/><text fill="#000000" font-family="sans-serif" font-size="14" lengthAdjust="spacing" textLength="231" x="772.5" y="605.1426">showErrorNotification(errorMessage)</text></g><!--class BirdObservation--><g id="elem_BirdObservation"><rect codeLine="44" fill="#F1F1F1" height="276.9219" id="BirdObservation" rx="2.5" ry="2.5" style="stroke:#181818;stroke-width:0.5;" width="216" x="877.5" y="699"/><ellipse cx="930.25" cy="715" fill="#ADD1B2" rx="11" ry="11" style="stroke:#181818;stroke-width:1.0;"/><path d="M933.0156,710.875 Q933.1719,710.6563 933.3594,710.5469 Q933.5469,710.4375 933.7656,710.4375 Q934.1406,710.4375 934.375,710.7031 Q934.6094,710.9531 934.6094,711.5625 L934.6094,713.0156 Q934.6094,713.625 934.375,713.8906 Q934.1406,714.1563 933.7656,714.1563 Q933.4219,714.1563 933.2188,713.9531 Q933.0156,713.7656 932.9063,713.25 Q932.8594,712.8906 932.6719,712.7031 Q932.3438,712.3281 931.7344,712.1094 Q931.125,711.8906 930.5,711.8906 Q929.7344,711.8906 929.0938,712.2188 Q928.4688,712.5469 927.9688,713.2969 Q927.4844,714.0469 927.4844,715.0781 L927.4844,716.1719 Q927.4844,717.4063 928.375,718.2344 Q929.2656,719.0469 930.8594,719.0469 Q931.7969,719.0469 932.4531,718.7969 Q932.8438,718.6406 933.2656,718.2031 Q933.5313,717.9375 933.6719,717.8594 Q933.8281,717.7813 934.0313,717.7813 Q934.3594,717.7813 934.6094,718.0469 Q934.875,718.2969 934.875,718.6406 Q934.875,718.9844 934.5313,719.3906 Q934.0313,719.9688 933.2344,720.2969 Q932.1563,720.75 930.8594,720.75 Q929.3438,720.75 928.1406,720.125 Q927.1563,719.625 926.4688,718.5625 Q925.7813,717.4844 925.7813,716.2031 L925.7813,715.0469 Q925.7813,713.7188 926.3906,712.5781 Q927.0156,711.4219 928.1094,710.8125 Q929.2031,710.1875 930.4375,710.1875 Q931.1719,710.1875 931.8125,710.3594 Q932.4688,710.5156 933.0156,710.875 Z " fill="#000000"/><text fill="#000000" font-family="sans-serif" font-size="14" lengthAdjust="spacing" textLength="102" x="950.75" y="720.7285">BirdObservation</text><line style="stroke:#181818;stroke-width:0.5;" x1="878.5" x2="1092.5" y1="731" y2="731"/><ellipse cx="888.5" cy="745.3047" fill="none" rx="3" ry="3" style="stroke:#038048;stroke-width:1.0;"/><text fill="#000000" font-family="sans-serif" font-size="14" lengthAdjust="spacing" textLength="105" x="897.5" y="749.5332">birdName: String</text><ellipse cx="888.5" cy="762.9141" fill="none" rx="3" ry="3" style="stroke:#038048;stroke-width:1.0;"/><text fill="#000000" font-family="sans-serif" font-size="14" lengthAdjust="spacing" textLength="135" x="897.5" y="767.1426">scientificName: String</text><ellipse cx="888.5" cy="780.5234" fill="none" rx="3" ry="3" style="stroke:#038048;stroke-width:1.0;"/><text fill="#000000" font-family="sans-serif" font-size="14" lengthAdjust="spacing" textLength="141" x="897.5" y="784.752">soundDirectory: String</text><ellipse cx="888.5" cy="798.1328" fill="none" rx="3" ry="3" style="stroke:#038048;stroke-width:1.0;"/><text fill="#000000" font-family="sans-serif" font-size="14" lengthAdjust="spacing" textLength="97" x="897.5" y="802.3613">latitude: double</text><ellipse cx="888.5" cy="815.7422" fill="none" rx="3" ry="3" style="stroke:#038048;stroke-width:1.0;"/><text fill="#000000" font-family="sans-serif" font-size="14" lengthAdjust="spacing" textLength="109" x="897.5" y="819.9707">longitude: double</text><ellipse cx="888.5" cy="833.3516" fill="none" rx="3" ry="3" style="stroke:#038048;stroke-width:1.0;"/><text fill="#000000" font-family="sans-serif" font-size="14" lengthAdjust="spacing" textLength="173" x="897.5" y="837.5801">observationDate: DateTime</text><ellipse cx="888.5" cy="850.9609" fill="none" rx="3" ry="3" style="stroke:#038048;stroke-width:1.0;"/><text fill="#000000" font-family="sans-serif" font-size="14" lengthAdjust="spacing" textLength="150" x="897.5" y="855.1895">observationTime: String</text><ellipse cx="888.5" cy="868.5703" fill="none" rx="3" ry="3" style="stroke:#038048;stroke-width:1.0;"/><text fill="#000000" font-family="sans-serif" font-size="14" lengthAdjust="spacing" textLength="90" x="897.5" y="872.7988">observerId: int</text><ellipse cx="888.5" cy="886.1797" fill="none" rx="3" ry="3" style="stroke:#038048;stroke-width:1.0;"/><text fill="#000000" font-family="sans-serif" font-size="14" lengthAdjust="spacing" textLength="73" x="897.5" y="890.4082">quantity: int</text><ellipse cx="888.5" cy="903.7891" fill="none" rx="3" ry="3" style="stroke:#038048;stroke-width:1.0;"/><text fill="#000000" font-family="sans-serif" font-size="14" lengthAdjust="spacing" textLength="103" x="897.5" y="908.0176">isTestData: bool</text><ellipse cx="888.5" cy="921.3984" fill="none" rx="3" ry="3" style="stroke:#038048;stroke-width:1.0;"/><text fill="#000000" font-family="sans-serif" font-size="14" lengthAdjust="spacing" textLength="93" x="897.5" y="925.627">testBatchId: int</text><ellipse cx="888.5" cy="939.0078" fill="none" rx="3" ry="3" style="stroke:#038048;stroke-width:1.0;"/><text fill="#000000" font-family="sans-serif" font-size="14" lengthAdjust="spacing" textLength="107" x="897.5" y="943.2363">sourceId: String?</text><line style="stroke:#181818;stroke-width:0.5;" x1="878.5" x2="1092.5" y1="950.3125" y2="950.3125"/><ellipse cx="888.5" cy="964.6172" fill="#84BE84" rx="3" ry="3" style="stroke:#038048;stroke-width:1.0;"/><text fill="#000000" font-family="sans-serif" font-size="14" lengthAdjust="spacing" textLength="190" x="897.5" y="968.8457">copyWith(...): BirdObservation</text></g><!--link ObservationUploader to DatabaseService--><g id="link_ObservationUploader_DatabaseService"><path codeLine="60" d="M492.44,377.13 C413.2,428.47 335.2059,478.9982 277.1559,516.5982 " fill="none" id="ObservationUploader-to-DatabaseService" style="stroke:#181818;stroke-width:1.0;"/><polygon fill="#181818" points="272.12,519.86,281.8484,518.3245,276.3166,517.1418,277.4993,511.61,272.12,519.86" style="stroke:#181818;stroke-width:1.0;"/><text fill="#000000" font-family="sans-serif" font-size="13" lengthAdjust="spacing" textLength="28" x="339.5" y="486.4951">uses</text></g><!--link ObservationUploader to ObservationService--><g id="link_ObservationUploader_ObservationService"><path codeLine="61" d="M626.88,442.38 C611.73,475.39 600.1639,500.5675 589.6339,523.4975 " fill="none" id="ObservationUploader-to-ObservationService" style="stroke:#181818;stroke-width:1.0;"/><polygon fill="#181818" points="587.13,528.95,594.5209,522.4405,589.2166,524.4062,587.2509,519.1019,587.13,528.95" style="stroke:#181818;stroke-width:1.0;"/><text fill="#000000" font-family="sans-serif" font-size="13" lengthAdjust="spacing" textLength="28" x="612.5" y="486.4951">uses</text></g><!--link ObservationUploader to UploadNotificationService--><g id="link_ObservationUploader_UploadNotificationService"><path codeLine="62" d="M826.12,442.38 C841.27,475.39 852.8361,500.5675 863.3661,523.4975 " fill="none" id="ObservationUploader-to-UploadNotificationService" style="stroke:#181818;stroke-width:1.0;"/><polygon fill="#181818" points="865.87,528.95,865.7491,519.1019,863.7834,524.4062,858.4791,522.4405,865.87,528.95" style="stroke:#181818;stroke-width:1.0;"/><text fill="#000000" font-family="sans-serif" font-size="13" lengthAdjust="spacing" textLength="28" x="847.5" y="486.4951">uses</text></g><!--link ObservationUploader to BirdObservation--><g id="link_ObservationUploader_BirdObservation"><path codeLine="63" d="M960.62,407.79 C990.24,441.72 1016.19,479.41 1033.5,520 C1057.32,575.85 1053.4739,635.839 1039.6239,692.959 " fill="none" id="ObservationUploader-to-BirdObservation" style="stroke:#181818;stroke-width:1.0;stroke-dasharray:7.0,7.0;"/><polygon fill="#181818" points="1038.21,698.79,1044.2182,690.986,1039.3882,693.9308,1036.4434,689.1009,1038.21,698.79" style="stroke:#181818;stroke-width:1.0;"/><text fill="#000000" font-family="sans-serif" font-size="13" lengthAdjust="spacing" textLength="43" x="1051.5" y="575.9951">creates</text></g><!--link UploadNotificationService to BirdObservation--><g id="link_UploadNotificationService_BirdObservation"><path codeLine="64" d="M899.95,612.04 C908.96,635.67 918.7627,661.3936 930.8627,693.1336 " fill="none" id="UploadNotificationService-to-BirdObservation" style="stroke:#181818;stroke-width:1.0;stroke-dasharray:7.0,7.0;"/><polygon fill="#181818" points="933,698.74,933.5317,688.9055,931.2189,694.068,926.0564,691.7552,933,698.74" style="stroke:#181818;stroke-width:1.0;"/><text fill="#000000" font-family="sans-serif" font-size="13" lengthAdjust="spacing" textLength="41" x="921.5" y="665.4951">notifies</text></g><!--SRC=[XLNRZjem47tFL_Wng5q-8AfOmT9AbNQtbQ3g8tBiQR0KCgdjKA5L_xrZEn0x2TitEEVCrMT0rDmOzgqqeC_SAcn-j3Lo2PgzPOmzi2stlEG6TiGh0UmWKy2Bel2R3YUObuRqhsZLBoLYzf4TcYdgOqh4cWf3sLKlA0Esirer5GM1rgXVm1XUnMfbGYKIfNgQrmPgexHyvIUupWbxTO94uO0ePwjHK27A4-Yat5fOTOQCi0y1gy2og8jyuQbh7uwDM-_fA7AhJ8i6PCyOVePr8qE-QE5vsO_naIsNoqN1ldIsq_39JHV97bS-Yr_nvLaP2mreq-UMeHHzyoCTAaVIGdRODNAhD0YB-f8ReQ3nJ-JgKQamp3N6FdLQa-0PmnFcGpFVqIW7hO9MQA3iemxpzzhl0xlnz7jSjogFl3PaEAEIVLYDrTQv9p-5PPF8iTdVB1FU_sENl_crq4YkZStb2KydRDpGkRXzJ7ljzykb78yrsvngR0YWeOSsPkueT3APE-UjSaqF6PrpPbBUlRS-ipdYdrqddAzZKTBrJVZP6JQHnHPU35L7E-XhNPqQ6OVo9gPAgSH-2LLJNjj9qalioXe2Y4qrHQD9t94NjrCVimvBYWGEz5TPC7emZ_tkE7LhBmEYp1wCTOzH-FFre2Lemwqunh4qZnRWaFvNmAC2syjFPO-z_qUhSpkT-tL-U5XDN5kmpe2vAvznrtyYxflddS3bSZLv_uA5apVP_PJpSU4_WGB_0G00]--></g></svg>