<?xml version="1.0" encoding="us-ascii" standalone="no"?><svg xmlns="http://www.w3.org/2000/svg" xmlns:xlink="http://www.w3.org/1999/xlink" contentStyleType="text/css" height="578px" preserveAspectRatio="none" style="width:626px;height:578px;background:#FFFFFF;" version="1.1" viewBox="0 0 626 578" width="626px" zoomAndPan="magnify"><defs/><g><!--class FastAPIApp--><g id="elem_FastAPIApp"><rect codeLine="2" fill="#F1F1F1" height="83.2188" id="FastAPIApp" rx="2.5" ry="2.5" style="stroke:#181818;stroke-width:0.5;" width="139" x="235" y="7"/><ellipse cx="264.85" cy="23" fill="#ADD1B2" rx="11" ry="11" style="stroke:#181818;stroke-width:1.0;"/><path d="M267.6156,18.875 Q267.7719,18.6563 267.9594,18.5469 Q268.1469,18.4375 268.3656,18.4375 Q268.7406,18.4375 268.975,18.7031 Q269.2094,18.9531 269.2094,19.5625 L269.2094,21.0156 Q269.2094,21.625 268.975,21.8906 Q268.7406,22.1563 268.3656,22.1563 Q268.0219,22.1563 267.8188,21.9531 Q267.6156,21.7656 267.5063,21.25 Q267.4594,20.8906 267.2719,20.7031 Q266.9438,20.3281 266.3344,20.1094 Q265.725,19.8906 265.1,19.8906 Q264.3344,19.8906 263.6938,20.2188 Q263.0688,20.5469 262.5688,21.2969 Q262.0844,22.0469 262.0844,23.0781 L262.0844,24.1719 Q262.0844,25.4063 262.975,26.2344 Q263.8656,27.0469 265.4594,27.0469 Q266.3969,27.0469 267.0531,26.7969 Q267.4438,26.6406 267.8656,26.2031 Q268.1313,25.9375 268.2719,25.8594 Q268.4281,25.7813 268.6313,25.7813 Q268.9594,25.7813 269.2094,26.0469 Q269.475,26.2969 269.475,26.6406 Q269.475,26.9844 269.1313,27.3906 Q268.6313,27.9688 267.8344,28.2969 Q266.7563,28.75 265.4594,28.75 Q263.9438,28.75 262.7406,28.125 Q261.7563,27.625 261.0688,26.5625 Q260.3813,25.4844 260.3813,24.2031 L260.3813,23.0469 Q260.3813,21.7188 260.9906,20.5781 Q261.6156,19.4219 262.7094,18.8125 Q263.8031,18.1875 265.0375,18.1875 Q265.7719,18.1875 266.4125,18.3594 Q267.0688,18.5156 267.6156,18.875 Z " fill="#000000"/><text fill="#000000" font-family="sans-serif" font-size="14" lengthAdjust="spacing" textLength="74" x="282.15" y="28.7285">FastAPIApp</text><line style="stroke:#181818;stroke-width:0.5;" x1="236" x2="373" y1="39" y2="39"/><ellipse cx="246" cy="53.3047" fill="none" rx="3" ry="3" style="stroke:#038048;stroke-width:1.0;"/><text fill="#000000" font-family="sans-serif" font-size="14" lengthAdjust="spacing" textLength="81" x="255" y="57.5332">app: FastAPI</text><line style="stroke:#181818;stroke-width:0.5;" x1="236" x2="373" y1="64.6094" y2="64.6094"/><ellipse cx="246" cy="78.9141" fill="#84BE84" rx="3" ry="3" style="stroke:#038048;stroke-width:1.0;"/><text fill="#000000" font-family="sans-serif" font-size="14" lengthAdjust="spacing" textLength="113" x="255" y="83.1426">add_middleware()</text></g><!--class DBConnection--><g id="elem_DBConnection"><rect codeLine="7" fill="#F1F1F1" height="65.6094" id="DBConnection" rx="2.5" ry="2.5" style="stroke:#181818;stroke-width:0.5;" width="157" x="7" y="452.5"/><ellipse cx="37.3" cy="468.5" fill="#ADD1B2" rx="11" ry="11" style="stroke:#181818;stroke-width:1.0;"/><path d="M40.0656,464.375 Q40.2219,464.1563 40.4094,464.0469 Q40.5969,463.9375 40.8156,463.9375 Q41.1906,463.9375 41.425,464.2031 Q41.6594,464.4531 41.6594,465.0625 L41.6594,466.5156 Q41.6594,467.125 41.425,467.3906 Q41.1906,467.6563 40.8156,467.6563 Q40.4719,467.6563 40.2688,467.4531 Q40.0656,467.2656 39.9563,466.75 Q39.9094,466.3906 39.7219,466.2031 Q39.3938,465.8281 38.7844,465.6094 Q38.175,465.3906 37.55,465.3906 Q36.7844,465.3906 36.1438,465.7188 Q35.5188,466.0469 35.0188,466.7969 Q34.5344,467.5469 34.5344,468.5781 L34.5344,469.6719 Q34.5344,470.9063 35.425,471.7344 Q36.3156,472.5469 37.9094,472.5469 Q38.8469,472.5469 39.5031,472.2969 Q39.8938,472.1406 40.3156,471.7031 Q40.5813,471.4375 40.7219,471.3594 Q40.8781,471.2813 41.0813,471.2813 Q41.4094,471.2813 41.6594,471.5469 Q41.925,471.7969 41.925,472.1406 Q41.925,472.4844 41.5813,472.8906 Q41.0813,473.4688 40.2844,473.7969 Q39.2063,474.25 37.9094,474.25 Q36.3938,474.25 35.1906,473.625 Q34.2063,473.125 33.5188,472.0625 Q32.8313,470.9844 32.8313,469.7031 L32.8313,468.5469 Q32.8313,467.2188 33.4406,466.0781 Q34.0656,464.9219 35.1594,464.3125 Q36.2531,463.6875 37.4875,463.6875 Q38.2219,463.6875 38.8625,463.8594 Q39.5188,464.0156 40.0656,464.375 Z " fill="#000000"/><text fill="#000000" font-family="sans-serif" font-size="14" lengthAdjust="spacing" textLength="91" x="54.7" y="474.2285">DBConnection</text><line style="stroke:#181818;stroke-width:0.5;" x1="8" x2="163" y1="484.5" y2="484.5"/><line style="stroke:#181818;stroke-width:0.5;" x1="8" x2="163" y1="492.5" y2="492.5"/><ellipse cx="18" cy="506.8047" fill="#84BE84" rx="3" ry="3" style="stroke:#038048;stroke-width:1.0;"/><text fill="#000000" font-family="sans-serif" font-size="14" lengthAdjust="spacing" textLength="131" x="27" y="511.0332">get_db_connection()</text></g><!--class APIConstants--><g id="elem_APIConstants"><rect codeLine="11" fill="#F1F1F1" height="171.2656" id="APIConstants" rx="2.5" ry="2.5" style="stroke:#181818;stroke-width:0.5;" width="211" x="199" y="400"/><ellipse cx="257.75" cy="416" fill="#ADD1B2" rx="11" ry="11" style="stroke:#181818;stroke-width:1.0;"/><path d="M260.5156,411.875 Q260.6719,411.6563 260.8594,411.5469 Q261.0469,411.4375 261.2656,411.4375 Q261.6406,411.4375 261.875,411.7031 Q262.1094,411.9531 262.1094,412.5625 L262.1094,414.0156 Q262.1094,414.625 261.875,414.8906 Q261.6406,415.1563 261.2656,415.1563 Q260.9219,415.1563 260.7188,414.9531 Q260.5156,414.7656 260.4063,414.25 Q260.3594,413.8906 260.1719,413.7031 Q259.8438,413.3281 259.2344,413.1094 Q258.625,412.8906 258,412.8906 Q257.2344,412.8906 256.5938,413.2188 Q255.9688,413.5469 255.4688,414.2969 Q254.9844,415.0469 254.9844,416.0781 L254.9844,417.1719 Q254.9844,418.4063 255.875,419.2344 Q256.7656,420.0469 258.3594,420.0469 Q259.2969,420.0469 259.9531,419.7969 Q260.3438,419.6406 260.7656,419.2031 Q261.0313,418.9375 261.1719,418.8594 Q261.3281,418.7813 261.5313,418.7813 Q261.8594,418.7813 262.1094,419.0469 Q262.375,419.2969 262.375,419.6406 Q262.375,419.9844 262.0313,420.3906 Q261.5313,420.9688 260.7344,421.2969 Q259.6563,421.75 258.3594,421.75 Q256.8438,421.75 255.6406,421.125 Q254.6563,420.625 253.9688,419.5625 Q253.2813,418.4844 253.2813,417.2031 L253.2813,416.0469 Q253.2813,414.7188 253.8906,413.5781 Q254.5156,412.4219 255.6094,411.8125 Q256.7031,411.1875 257.9375,411.1875 Q258.6719,411.1875 259.3125,411.3594 Q259.9688,411.5156 260.5156,411.875 Z " fill="#000000"/><text fill="#000000" font-family="sans-serif" font-size="14" lengthAdjust="spacing" textLength="85" x="278.25" y="421.7285">APIConstants</text><line style="stroke:#181818;stroke-width:0.5;" x1="200" x2="409" y1="432" y2="432"/><ellipse cx="210" cy="446.3047" fill="none" rx="3" ry="3" style="stroke:#038048;stroke-width:1.0;"/><text fill="#000000" font-family="sans-serif" font-size="14" lengthAdjust="spacing" textLength="129" x="219" y="450.5332">EBIRD_API_URL: str</text><ellipse cx="210" cy="463.9141" fill="none" rx="3" ry="3" style="stroke:#038048;stroke-width:1.0;"/><text fill="#000000" font-family="sans-serif" font-size="14" lengthAdjust="spacing" textLength="185" x="219" y="468.1426">EBIRD_TAXONOMY_URL: str</text><ellipse cx="210" cy="481.5234" fill="none" rx="3" ry="3" style="stroke:#038048;stroke-width:1.0;"/><text fill="#000000" font-family="sans-serif" font-size="14" lengthAdjust="spacing" textLength="146" x="219" y="485.752">XENO_CANTO_API: str</text><ellipse cx="210" cy="499.1328" fill="none" rx="3" ry="3" style="stroke:#038048;stroke-width:1.0;"/><text fill="#000000" font-family="sans-serif" font-size="14" lengthAdjust="spacing" textLength="129" x="219" y="503.3613">EBIRD_API_KEY: str</text><ellipse cx="210" cy="516.7422" fill="none" rx="3" ry="3" style="stroke:#038048;stroke-width:1.0;"/><text fill="#000000" font-family="sans-serif" font-size="14" lengthAdjust="spacing" textLength="132" x="219" y="520.9707">DATABASE_URL: str</text><ellipse cx="210" cy="534.3516" fill="none" rx="3" ry="3" style="stroke:#038048;stroke-width:1.0;"/><text fill="#000000" font-family="sans-serif" font-size="14" lengthAdjust="spacing" textLength="61" x="219" y="538.5801">LAT: float</text><ellipse cx="210" cy="551.9609" fill="none" rx="3" ry="3" style="stroke:#038048;stroke-width:1.0;"/><text fill="#000000" font-family="sans-serif" font-size="14" lengthAdjust="spacing" textLength="63" x="219" y="556.1895">LON: float</text><line style="stroke:#181818;stroke-width:0.5;" x1="200" x2="409" y1="563.2656" y2="563.2656"/></g><!--class Endpoints--><g id="elem_Endpoints"><rect codeLine="21" fill="#F1F1F1" height="153.6563" id="Endpoints" rx="2.5" ry="2.5" style="stroke:#181818;stroke-width:0.5;" width="270" x="169.5" y="168"/><ellipse cx="268.75" cy="184" fill="#ADD1B2" rx="11" ry="11" style="stroke:#181818;stroke-width:1.0;"/><path d="M271.5156,179.875 Q271.6719,179.6563 271.8594,179.5469 Q272.0469,179.4375 272.2656,179.4375 Q272.6406,179.4375 272.875,179.7031 Q273.1094,179.9531 273.1094,180.5625 L273.1094,182.0156 Q273.1094,182.625 272.875,182.8906 Q272.6406,183.1563 272.2656,183.1563 Q271.9219,183.1563 271.7188,182.9531 Q271.5156,182.7656 271.4063,182.25 Q271.3594,181.8906 271.1719,181.7031 Q270.8438,181.3281 270.2344,181.1094 Q269.625,180.8906 269,180.8906 Q268.2344,180.8906 267.5938,181.2188 Q266.9688,181.5469 266.4688,182.2969 Q265.9844,183.0469 265.9844,184.0781 L265.9844,185.1719 Q265.9844,186.4063 266.875,187.2344 Q267.7656,188.0469 269.3594,188.0469 Q270.2969,188.0469 270.9531,187.7969 Q271.3438,187.6406 271.7656,187.2031 Q272.0313,186.9375 272.1719,186.8594 Q272.3281,186.7813 272.5313,186.7813 Q272.8594,186.7813 273.1094,187.0469 Q273.375,187.2969 273.375,187.6406 Q273.375,187.9844 273.0313,188.3906 Q272.5313,188.9688 271.7344,189.2969 Q270.6563,189.75 269.3594,189.75 Q267.8438,189.75 266.6406,189.125 Q265.6563,188.625 264.9688,187.5625 Q264.2813,186.4844 264.2813,185.2031 L264.2813,184.0469 Q264.2813,182.7188 264.8906,181.5781 Q265.5156,180.4219 266.6094,179.8125 Q267.7031,179.1875 268.9375,179.1875 Q269.6719,179.1875 270.3125,179.3594 Q270.9688,179.5156 271.5156,179.875 Z " fill="#000000"/><text fill="#000000" font-family="sans-serif" font-size="14" lengthAdjust="spacing" textLength="63" x="289.25" y="189.7285">Endpoints</text><line style="stroke:#181818;stroke-width:0.5;" x1="170.5" x2="438.5" y1="200" y2="200"/><line style="stroke:#181818;stroke-width:0.5;" x1="170.5" x2="438.5" y1="208" y2="208"/><ellipse cx="180.5" cy="222.3047" fill="#84BE84" rx="3" ry="3" style="stroke:#038048;stroke-width:1.0;"/><text fill="#000000" font-family="sans-serif" font-size="14" lengthAdjust="spacing" textLength="244" x="189.5" y="226.5332">get_observations(after_timestamp: str)</text><ellipse cx="180.5" cy="239.9141" fill="#84BE84" rx="3" ry="3" style="stroke:#038048;stroke-width:1.0;"/><text fill="#000000" font-family="sans-serif" font-size="14" lengthAdjust="spacing" textLength="69" x="189.5" y="244.1426">get_birds()</text><ellipse cx="180.5" cy="257.5234" fill="#84BE84" rx="3" ry="3" style="stroke:#038048;stroke-width:1.0;"/><text fill="#000000" font-family="sans-serif" font-size="14" lengthAdjust="spacing" textLength="230" x="189.5" y="261.752">get_bird_sound(scientific_name: str)</text><ellipse cx="180.5" cy="275.1328" fill="#84BE84" rx="3" ry="3" style="stroke:#038048;stroke-width:1.0;"/><text fill="#000000" font-family="sans-serif" font-size="14" lengthAdjust="spacing" textLength="152" x="189.5" y="279.3613">search_birds(query: str)</text><ellipse cx="180.5" cy="292.7422" fill="#84BE84" rx="3" ry="3" style="stroke:#038048;stroke-width:1.0;"/><text fill="#000000" font-family="sans-serif" font-size="14" lengthAdjust="spacing" textLength="87" x="189.5" y="296.9707">get_bird_list()</text><ellipse cx="180.5" cy="310.3516" fill="#84BE84" rx="3" ry="3" style="stroke:#038048;stroke-width:1.0;"/><text fill="#000000" font-family="sans-serif" font-size="14" lengthAdjust="spacing" textLength="94" x="189.5" y="314.5801">health_check()</text></g><!--class HelperFunctions--><g id="elem_HelperFunctions"><rect codeLine="30" fill="#F1F1F1" height="65.6094" id="HelperFunctions" rx="2.5" ry="2.5" style="stroke:#181818;stroke-width:0.5;" width="174" x="445.5" y="452.5"/><ellipse cx="478.05" cy="468.5" fill="#ADD1B2" rx="11" ry="11" style="stroke:#181818;stroke-width:1.0;"/><path d="M480.8156,464.375 Q480.9719,464.1563 481.1594,464.0469 Q481.3469,463.9375 481.5656,463.9375 Q481.9406,463.9375 482.175,464.2031 Q482.4094,464.4531 482.4094,465.0625 L482.4094,466.5156 Q482.4094,467.125 482.175,467.3906 Q481.9406,467.6563 481.5656,467.6563 Q481.2219,467.6563 481.0188,467.4531 Q480.8156,467.2656 480.7063,466.75 Q480.6594,466.3906 480.4719,466.2031 Q480.1438,465.8281 479.5344,465.6094 Q478.925,465.3906 478.3,465.3906 Q477.5344,465.3906 476.8938,465.7188 Q476.2688,466.0469 475.7688,466.7969 Q475.2844,467.5469 475.2844,468.5781 L475.2844,469.6719 Q475.2844,470.9063 476.175,471.7344 Q477.0656,472.5469 478.6594,472.5469 Q479.5969,472.5469 480.2531,472.2969 Q480.6438,472.1406 481.0656,471.7031 Q481.3313,471.4375 481.4719,471.3594 Q481.6281,471.2813 481.8313,471.2813 Q482.1594,471.2813 482.4094,471.5469 Q482.675,471.7969 482.675,472.1406 Q482.675,472.4844 482.3313,472.8906 Q481.8313,473.4688 481.0344,473.7969 Q479.9563,474.25 478.6594,474.25 Q477.1438,474.25 475.9406,473.625 Q474.9563,473.125 474.2688,472.0625 Q473.5813,470.9844 473.5813,469.7031 L473.5813,468.5469 Q473.5813,467.2188 474.1906,466.0781 Q474.8156,464.9219 475.9094,464.3125 Q477.0031,463.6875 478.2375,463.6875 Q478.9719,463.6875 479.6125,463.8594 Q480.2688,464.0156 480.8156,464.375 Z " fill="#000000"/><text fill="#000000" font-family="sans-serif" font-size="14" lengthAdjust="spacing" textLength="103" x="495.95" y="474.2285">HelperFunctions</text><line style="stroke:#181818;stroke-width:0.5;" x1="446.5" x2="618.5" y1="484.5" y2="484.5"/><line style="stroke:#181818;stroke-width:0.5;" x1="446.5" x2="618.5" y1="492.5" y2="492.5"/><ellipse cx="456.5" cy="506.8047" fill="#84BE84" rx="3" ry="3" style="stroke:#038048;stroke-width:1.0;"/><text fill="#000000" font-family="sans-serif" font-size="14" lengthAdjust="spacing" textLength="148" x="465.5" y="511.0332">get_danish_taxonomy()</text></g><!--link FastAPIApp to Endpoints--><g id="link_FastAPIApp_Endpoints"><path codeLine="34" d="M304.5,90.27 C304.5,112.78 304.5,135.45 304.5,161.92 " fill="none" id="FastAPIApp-to-Endpoints" style="stroke:#181818;stroke-width:1.0;"/><polygon fill="#181818" points="304.5,167.92,308.5,158.92,304.5,162.92,300.5,158.92,304.5,167.92" style="stroke:#181818;stroke-width:1.0;"/><text fill="#000000" font-family="sans-serif" font-size="13" lengthAdjust="spacing" textLength="36" x="305.5" y="134.4951">routes</text></g><!--link Endpoints to DBConnection--><g id="link_Endpoints_DBConnection"><path codeLine="35" d="M234.6,322.12 C194.17,366.15 149.4678,414.8302 118.9778,448.0402 " fill="none" id="Endpoints-to-DBConnection" style="stroke:#181818;stroke-width:1.0;"/><polygon fill="#181818" points="114.92,452.46,123.9532,448.5355,118.3015,448.7769,118.0602,443.1252,114.92,452.46" style="stroke:#181818;stroke-width:1.0;"/><text fill="#000000" font-family="sans-serif" font-size="13" lengthAdjust="spacing" textLength="28" x="203.5" y="366.4951">uses</text></g><!--link Endpoints to APIConstants--><g id="link_Endpoints_APIConstants"><path codeLine="36" d="M304.5,322.12 C304.5,346.79 304.5,368.32 304.5,393.59 " fill="none" id="Endpoints-to-APIConstants" style="stroke:#181818;stroke-width:1.0;"/><polygon fill="#181818" points="304.5,399.59,308.5,390.59,304.5,394.59,300.5,390.59,304.5,399.59" style="stroke:#181818;stroke-width:1.0;"/><text fill="#000000" font-family="sans-serif" font-size="13" lengthAdjust="spacing" textLength="28" x="305.5" y="366.4951">uses</text></g><!--link Endpoints to HelperFunctions--><g id="link_Endpoints_HelperFunctions"><path codeLine="37" d="M377.27,322.12 C419.36,366.15 465.9844,414.9124 497.7244,448.1224 " fill="none" id="Endpoints-to-HelperFunctions" style="stroke:#181818;stroke-width:1.0;"/><polygon fill="#181818" points="501.87,452.46,498.5434,443.19,498.4154,448.8454,492.76,448.7174,501.87,452.46" style="stroke:#181818;stroke-width:1.0;"/><text fill="#000000" font-family="sans-serif" font-size="13" lengthAdjust="spacing" textLength="28" x="419.5" y="366.4951">uses</text></g><!--SRC=[RPBDRi8m48JlUGeVWofU88TA1eAAIfEAfXASB6ClZTN4ThrEMrJrtPj0o0_bkEFvHZlPY88ZaYL7JvzNr5ho4n1oHxYKh5HI5l357OIJisXjTB46lq4WJknYDZTQW_3Aw9P-0y_adebEhmCwVmtN07gkFRR-UBRQB5Zzm5utwuYWTmCveziqIPzsuxTjdAHiJfCiRRXhfebwZ7UzlA0PdT6NU1oofbb43eNX_ZocoMNijesrj4RrgpRLp1x1VVAc68RyuC4nhqgeAvNs53xfh7lb98RZcQ6fj0nHAD1U7PHWcfSm016u4tdBVbJWZZTIMQ7GjyavyCBdJEGWteUV-W4A2svPwTCHXXKarmfpvlctqQOydg71Np2TtW-gHyIPoWC6lTGOHfUFI8N_7ADRttHShzYQ_W00]--></g></svg>